<svg width="750" height="500" viewBox="0 0 750 500" fill="none" xmlns="http://www.w3.org/2000/svg">
<path d="M244.2 148.3H117.56V61.6699H244.2V148.3ZM118.56 147.3H243.2V62.6699H118.56V147.3Z" fill="#EBEBEB"/>
<path d="M127.46 67.25C127.46 67.7484 127.313 68.2356 127.036 68.65C126.759 69.0644 126.365 69.3874 125.905 69.5782C125.444 69.7689 124.938 69.8188 124.449 69.7216C123.96 69.6243 123.511 69.3843 123.158 69.0319C122.806 68.6795 122.566 68.2304 122.469 67.7416C122.372 67.2528 122.422 66.7461 122.612 66.2856C122.803 65.8251 123.126 65.4316 123.54 65.1547C123.955 64.8778 124.442 64.73 124.94 64.73C125.609 64.73 126.25 64.9955 126.722 65.4681C127.195 65.9407 127.46 66.5816 127.46 67.25V67.25Z" fill="#A6A6A6"/>
<path d="M137.75 67.25C137.75 67.7484 137.602 68.2356 137.325 68.65C137.048 69.0644 136.655 69.3874 136.194 69.5782C135.734 69.7689 135.227 69.8188 134.738 69.7216C134.25 69.6243 133.8 69.3843 133.448 69.0319C133.096 68.6795 132.856 68.2304 132.758 67.7416C132.661 67.2528 132.711 66.7461 132.902 66.2856C133.093 65.8251 133.416 65.4316 133.83 65.1547C134.244 64.8778 134.732 64.73 135.23 64.73C135.898 64.73 136.539 64.9955 137.012 65.4681C137.484 65.9407 137.75 66.5816 137.75 67.25V67.25Z" fill="#EBEBEB"/>
<path d="M148.05 67.25C148.052 67.7512 147.905 68.2418 147.628 68.6593C147.351 69.0769 146.956 69.4028 146.493 69.5955C146.03 69.7882 145.521 69.8392 145.029 69.7418C144.537 69.6445 144.086 69.4034 143.731 69.049C143.377 68.6945 143.136 68.2428 143.038 67.7511C142.941 67.2594 142.992 66.7499 143.185 66.2872C143.377 65.8245 143.703 65.4294 144.121 65.1522C144.538 64.875 145.029 64.728 145.53 64.73C146.199 64.73 146.84 64.9955 147.312 65.4681C147.785 65.9407 148.05 66.5817 148.05 67.25V67.25Z" fill="#403F57"/>
<path d="M243.7 71.6799H118.06V72.6799H243.7V71.6799Z" fill="#EBEBEB"/>
<path d="M658.51 375.21H657.51V249.39L684.24 212.91V144.73H685.24V213.23L658.51 249.72V375.21Z" fill="#EBEBEB"/>
<path d="M684.74 145.27C684.17 145.27 683.613 145.101 683.139 144.784C682.665 144.467 682.296 144.017 682.079 143.49C681.861 142.963 681.804 142.383 681.916 141.824C682.028 141.266 682.304 140.752 682.707 140.35C683.111 139.948 683.625 139.674 684.185 139.564C684.744 139.454 685.323 139.513 685.849 139.732C686.375 139.952 686.825 140.322 687.14 140.797C687.455 141.272 687.622 141.83 687.62 142.4C687.62 142.778 687.546 143.152 687.401 143.501C687.256 143.849 687.044 144.166 686.776 144.433C686.509 144.7 686.191 144.911 685.842 145.054C685.492 145.198 685.118 145.271 684.74 145.27V145.27ZM684.74 140.52C684.369 140.52 684.005 140.63 683.696 140.837C683.387 141.043 683.146 141.337 683.003 141.681C682.861 142.024 682.824 142.402 682.896 142.767C682.969 143.131 683.148 143.466 683.411 143.729C683.674 143.992 684.009 144.171 684.374 144.244C684.738 144.316 685.116 144.279 685.46 144.137C685.803 143.995 686.097 143.754 686.304 143.444C686.51 143.135 686.62 142.772 686.62 142.4C686.62 141.901 686.422 141.423 686.07 141.071C685.717 140.718 685.239 140.52 684.74 140.52V140.52Z" fill="#EBEBEB"/>
<path d="M665.4 375.21H664.4V253.8L664.49 253.66L691.13 217.31V169.73H692.13V217.64L665.4 254.12V375.21Z" fill="#EBEBEB"/>
<path d="M691.63 170.27C691.06 170.272 690.502 170.104 690.026 169.789C689.551 169.473 689.181 169.023 688.961 168.497C688.742 167.97 688.684 167.39 688.795 166.831C688.906 166.271 689.18 165.757 689.584 165.354C689.987 164.95 690.501 164.676 691.061 164.565C691.62 164.454 692.2 164.512 692.727 164.731C693.254 164.95 693.703 165.321 694.019 165.796C694.335 166.271 694.502 166.83 694.5 167.4C694.498 168.16 694.194 168.889 693.657 169.426C693.119 169.964 692.391 170.267 691.63 170.27V170.27ZM691.63 165.52C691.258 165.518 690.894 165.627 690.583 165.832C690.273 166.037 690.03 166.33 689.886 166.674C689.742 167.017 689.704 167.395 689.775 167.761C689.847 168.126 690.025 168.462 690.287 168.726C690.55 168.99 690.885 169.17 691.25 169.243C691.615 169.316 691.993 169.28 692.337 169.138C692.681 168.996 692.976 168.755 693.183 168.446C693.39 168.136 693.5 167.772 693.5 167.4C693.5 166.903 693.304 166.426 692.953 166.074C692.603 165.722 692.127 165.523 691.63 165.52V165.52Z" fill="#EBEBEB"/>
<path d="M651.88 208.8H650.88V375.21H651.88V208.8Z" fill="#EBEBEB"/>
<path d="M651.38 209.3C650.81 209.302 650.252 209.135 649.776 208.819C649.301 208.503 648.931 208.053 648.711 207.527C648.492 207 648.434 206.42 648.545 205.861C648.656 205.301 648.93 204.787 649.334 204.384C649.737 203.98 650.251 203.706 650.811 203.595C651.37 203.484 651.95 203.542 652.477 203.761C653.004 203.98 653.453 204.351 653.769 204.826C654.085 205.301 654.252 205.86 654.25 206.43C654.248 207.19 653.944 207.919 653.407 208.457C652.869 208.994 652.141 209.297 651.38 209.3V209.3ZM651.38 204.55C651.008 204.548 650.644 204.657 650.333 204.862C650.023 205.067 649.78 205.36 649.636 205.704C649.492 206.047 649.454 206.425 649.525 206.791C649.597 207.156 649.775 207.492 650.037 207.756C650.3 208.02 650.635 208.2 651 208.273C651.365 208.347 651.743 208.31 652.087 208.168C652.431 208.026 652.726 207.785 652.933 207.476C653.14 207.166 653.25 206.802 653.25 206.43C653.25 205.933 653.054 205.456 652.703 205.104C652.353 204.752 651.877 204.553 651.38 204.55V204.55Z" fill="#EBEBEB"/>
<path d="M645.49 375.21H644.49V290.76L626.35 256.53V195.05H627.35V256.29L645.49 290.52V375.21Z" fill="#EBEBEB"/>
<path d="M626.84 195.55C626.27 195.55 625.714 195.381 625.24 195.065C624.766 194.748 624.397 194.298 624.179 193.772C623.961 193.246 623.904 192.667 624.015 192.108C624.126 191.55 624.401 191.036 624.804 190.634C625.206 190.231 625.719 189.957 626.278 189.845C626.837 189.734 627.416 189.791 627.942 190.009C628.468 190.227 628.918 190.596 629.235 191.07C629.551 191.544 629.72 192.1 629.72 192.67C629.72 193.434 629.417 194.166 628.876 194.707C628.336 195.247 627.604 195.55 626.84 195.55V195.55ZM626.84 190.8C626.468 190.8 626.104 190.911 625.794 191.118C625.485 191.325 625.244 191.619 625.102 191.963C624.96 192.307 624.924 192.686 624.997 193.051C625.07 193.415 625.25 193.75 625.514 194.013C625.778 194.275 626.114 194.454 626.479 194.525C626.845 194.597 627.223 194.558 627.566 194.414C627.91 194.27 628.203 194.028 628.408 193.717C628.613 193.407 628.722 193.042 628.72 192.67C628.72 192.424 628.671 192.18 628.577 191.952C628.482 191.725 628.343 191.518 628.169 191.344C627.994 191.17 627.787 191.033 627.559 190.94C627.331 190.846 627.086 190.799 626.84 190.8V190.8Z" fill="#EBEBEB"/>
<path d="M639.14 375.21H638.14V294.43L616.75 256.59V216.04H617.75V256.32L639.14 294.17V375.21Z" fill="#EBEBEB"/>
<path d="M617.25 216.54C616.68 216.542 616.122 216.375 615.647 216.059C615.171 215.743 614.801 215.293 614.582 214.767C614.362 214.24 614.304 213.66 614.415 213.101C614.526 212.541 614.801 212.027 615.204 211.624C615.607 211.22 616.121 210.946 616.681 210.835C617.241 210.724 617.82 210.782 618.347 211.001C618.874 211.22 619.323 211.591 619.639 212.066C619.955 212.541 620.122 213.1 620.12 213.67C620.118 214.43 619.814 215.159 619.277 215.697C618.739 216.234 618.011 216.537 617.25 216.54V216.54ZM617.25 211.79C616.878 211.788 616.514 211.897 616.203 212.102C615.893 212.307 615.65 212.6 615.506 212.944C615.362 213.287 615.324 213.665 615.395 214.031C615.467 214.396 615.645 214.732 615.907 214.996C616.17 215.26 616.505 215.44 616.87 215.513C617.235 215.586 617.613 215.55 617.957 215.408C618.302 215.266 618.596 215.025 618.803 214.716C619.01 214.406 619.12 214.042 619.12 213.67C619.12 213.173 618.924 212.696 618.573 212.344C618.223 211.992 617.747 211.793 617.25 211.79V211.79Z" fill="#EBEBEB"/>
<path d="M96.1001 375.21H95.1001V309.71L68.3701 273.23V234.73H69.3701V272.9L96.1001 309.39V375.21Z" fill="#EBEBEB"/>
<path d="M68.87 235.27C68.2995 235.272 67.7413 235.104 67.2662 234.789C66.791 234.473 66.4203 234.023 66.2011 233.497C65.9819 232.97 65.924 232.39 66.0348 231.831C66.1456 231.271 66.4201 230.757 66.8235 230.354C67.2269 229.95 67.741 229.676 68.3006 229.565C68.8602 229.454 69.4401 229.512 69.9667 229.731C70.4934 229.95 70.9431 230.321 71.2588 230.796C71.5745 231.271 71.7419 231.83 71.74 232.4C71.74 233.161 71.4376 233.891 70.8994 234.429C70.3611 234.968 69.6311 235.27 68.87 235.27V235.27ZM68.87 230.52C68.4977 230.518 68.1333 230.627 67.8228 230.832C67.5123 231.037 67.2698 231.33 67.126 231.674C66.9821 232.017 66.9435 232.395 67.0149 232.761C67.0863 233.126 67.2645 233.462 67.5271 233.726C67.7896 233.99 68.1246 234.17 68.4895 234.243C68.8545 234.316 69.233 234.28 69.5771 234.138C69.9212 233.996 70.2154 233.755 70.4224 233.446C70.6294 233.136 70.74 232.772 70.74 232.4C70.74 231.903 70.5433 231.426 70.1929 231.074C69.8425 230.722 69.3668 230.523 68.87 230.52V230.52Z" fill="#EBEBEB"/>
<path d="M89.21 375.21H88.21V314.12L61.48 277.64V259.73H62.48V277.31L89.21 313.8V375.21Z" fill="#EBEBEB"/>
<path d="M62.0001 260.27C61.4301 260.27 60.8729 260.101 60.399 259.784C59.9252 259.467 59.5561 259.017 59.3384 258.49C59.1207 257.963 59.0643 257.383 59.1762 256.824C59.2881 256.266 59.5634 255.752 59.9672 255.35C60.371 254.948 60.8851 254.674 61.4444 254.564C62.0037 254.454 62.5831 254.513 63.1092 254.732C63.6352 254.952 64.0843 255.322 64.3996 255.797C64.7149 256.272 64.8821 256.83 64.8801 257.4C64.8775 258.162 64.5729 258.892 64.033 259.43C63.4932 259.968 62.7622 260.27 62.0001 260.27V260.27ZM62.0001 255.52C61.6283 255.52 61.2648 255.63 60.9556 255.837C60.6465 256.043 60.4055 256.337 60.2632 256.681C60.1209 257.024 60.0837 257.402 60.1562 257.767C60.2288 258.131 60.4078 258.466 60.6707 258.729C60.9337 258.992 61.2686 259.171 61.6333 259.244C61.998 259.316 62.376 259.279 62.7195 259.137C63.0631 258.995 63.3567 258.754 63.5633 258.444C63.7698 258.135 63.8801 257.772 63.8801 257.4C63.8801 256.901 63.682 256.423 63.3295 256.071C62.9769 255.718 62.4987 255.52 62.0001 255.52V255.52Z" fill="#EBEBEB"/>
<path d="M102.73 268.8H101.73V375.21H102.73V268.8Z" fill="#EBEBEB"/>
<path d="M102.23 269.3C101.66 269.3 101.103 269.131 100.629 268.814C100.155 268.497 99.786 268.047 99.5684 267.52C99.3507 266.993 99.2942 266.413 99.4062 265.855C99.5181 265.296 99.7934 264.782 100.197 264.38C100.601 263.978 101.115 263.704 101.674 263.594C102.234 263.484 102.813 263.543 103.339 263.762C103.865 263.982 104.314 264.352 104.63 264.827C104.945 265.302 105.112 265.86 105.11 266.43C105.107 267.192 104.803 267.922 104.263 268.46C103.723 268.998 102.992 269.3 102.23 269.3ZM102.23 264.55C101.858 264.55 101.495 264.66 101.186 264.867C100.876 265.073 100.635 265.367 100.493 265.711C100.351 266.054 100.314 266.432 100.386 266.797C100.459 267.162 100.638 267.496 100.901 267.759C101.164 268.022 101.499 268.201 101.863 268.274C102.228 268.346 102.606 268.309 102.95 268.167C103.293 268.025 103.587 267.784 103.793 267.475C104 267.165 104.11 266.802 104.11 266.43C104.11 265.931 103.912 265.453 103.559 265.101C103.207 264.748 102.729 264.55 102.23 264.55V264.55Z" fill="#EBEBEB"/>
<path d="M109.12 375.21H108.12V320.52L108.17 320.4L126.26 286.29V225.05H127.26V286.53L127.21 286.64L109.12 320.76V375.21Z" fill="#EBEBEB"/>
<path d="M126.76 225.55C126.191 225.55 125.634 225.381 125.16 225.065C124.687 224.748 124.318 224.298 124.1 223.772C123.882 223.246 123.825 222.667 123.936 222.108C124.047 221.55 124.321 221.036 124.724 220.634C125.127 220.231 125.64 219.957 126.199 219.845C126.757 219.734 127.336 219.791 127.862 220.009C128.389 220.227 128.839 220.596 129.155 221.07C129.471 221.544 129.64 222.1 129.64 222.67C129.64 223.434 129.337 224.166 128.797 224.707C128.257 225.247 127.524 225.55 126.76 225.55V225.55ZM126.76 220.8C126.388 220.8 126.024 220.911 125.715 221.118C125.405 221.325 125.165 221.619 125.023 221.963C124.881 222.307 124.844 222.686 124.917 223.051C124.991 223.415 125.171 223.75 125.435 224.013C125.699 224.275 126.034 224.454 126.4 224.525C126.765 224.597 127.143 224.558 127.487 224.414C127.83 224.27 128.123 224.028 128.328 223.717C128.534 223.407 128.642 223.042 128.64 222.67C128.64 222.424 128.592 222.18 128.497 221.952C128.402 221.725 128.264 221.518 128.089 221.344C127.914 221.17 127.707 221.033 127.479 220.94C127.251 220.846 127.007 220.799 126.76 220.8V220.8Z" fill="#EBEBEB"/>
<path d="M115.47 375.21H114.47V324.17L114.53 324.05L135.86 286.32V246.04H136.86V286.59L136.79 286.7L115.47 324.43V375.21Z" fill="#EBEBEB"/>
<path d="M136.36 246.54C135.79 246.542 135.232 246.375 134.756 246.059C134.281 245.743 133.911 245.293 133.691 244.767C133.472 244.24 133.414 243.66 133.525 243.101C133.636 242.541 133.91 242.027 134.314 241.624C134.717 241.22 135.231 240.946 135.791 240.835C136.35 240.724 136.93 240.782 137.457 241.001C137.984 241.22 138.433 241.591 138.749 242.066C139.065 242.541 139.232 243.1 139.23 243.67C139.228 244.43 138.924 245.159 138.387 245.697C137.849 246.234 137.121 246.537 136.36 246.54V246.54ZM136.36 241.79C135.988 241.788 135.623 241.897 135.313 242.102C135.003 242.307 134.76 242.6 134.616 242.944C134.472 243.287 134.434 243.665 134.505 244.031C134.577 244.396 134.755 244.732 135.017 244.996C135.28 245.26 135.615 245.44 135.98 245.513C136.345 245.586 136.723 245.55 137.067 245.408C137.411 245.266 137.706 245.025 137.913 244.716C138.12 244.406 138.23 244.042 138.23 243.67C138.23 243.173 138.034 242.696 137.683 242.344C137.333 241.992 136.857 241.793 136.36 241.79V241.79Z" fill="#EBEBEB"/>
<path d="M686 127.75L693 116.5L689.56 114.37C689.059 114.058 688.656 113.611 688.397 113.081C688.139 112.55 688.036 111.957 688.1 111.37C688.154 110.703 688.174 110.037 688.16 109.37C688.142 108.789 688.286 108.215 688.576 107.712C688.866 107.209 689.29 106.796 689.8 106.52L693.37 104.6L687 92.9999L683.43 94.9199C682.915 95.1908 682.335 95.3136 681.754 95.2747C681.174 95.2359 680.615 95.0369 680.14 94.6999C679.6 94.3299 679.04 93.9799 678.46 93.6999C677.946 93.4264 677.518 93.0148 677.225 92.5113C676.931 92.0078 676.784 91.4324 676.8 90.8499L676.93 86.7899L663.7 86.3799L663.57 90.4499C663.548 91.0324 663.364 91.5972 663.039 92.0811C662.715 92.5651 662.261 92.949 661.73 93.1899C661.43 93.3299 661.14 93.4699 660.86 93.6299C660.58 93.7899 660.29 93.9399 660.01 94.1099C659.516 94.4142 658.946 94.5753 658.365 94.5753C657.785 94.5753 657.215 94.4142 656.72 94.1099L653.25 91.9599L646.25 103.21L649.7 105.36C650.203 105.67 650.607 106.117 650.865 106.648C651.124 107.179 651.226 107.773 651.16 108.36C651.104 109.025 651.084 109.693 651.1 110.36C651.116 110.942 650.97 111.518 650.679 112.023C650.387 112.527 649.962 112.942 649.45 113.22L645.94 115L652.2 126.67L655.77 124.76C656.285 124.488 656.864 124.363 657.445 124.4C658.026 124.437 658.585 124.634 659.06 124.97C659.602 125.333 660.163 125.667 660.74 125.97C661.255 126.243 661.683 126.655 661.976 127.159C662.27 127.662 662.416 128.237 662.4 128.82L662.28 132.88L675.51 133.29L675.64 129.23C675.662 128.649 675.846 128.085 676.171 127.602C676.496 127.12 676.95 126.738 677.48 126.5L678.35 126.06L679.2 125.57C679.697 125.266 680.268 125.105 680.85 125.105C681.433 125.105 682.004 125.266 682.5 125.57L686 127.75ZM674.8 119.4C672.909 120.413 670.759 120.843 668.624 120.634C666.488 120.426 664.462 119.589 662.802 118.229C661.142 116.869 659.923 115.048 659.298 112.995C658.673 110.942 658.671 108.75 659.292 106.696C659.912 104.642 661.128 102.819 662.786 101.456C664.443 100.093 666.467 99.2515 668.602 99.0389C670.738 98.8263 672.888 99.2516 674.781 100.261C676.675 101.27 678.227 102.819 679.24 104.71C679.912 105.969 680.328 107.348 680.466 108.768C680.603 110.188 680.46 111.622 680.042 112.986C679.625 114.351 678.943 115.62 678.035 116.72C677.127 117.821 676.011 118.731 674.75 119.4H674.8Z" fill="#EBEBEB"/>
<path d="M77.1802 227.76L85.1802 223.12L83.7602 220.66C83.5568 220.306 83.4565 219.902 83.4706 219.493C83.4848 219.085 83.6128 218.689 83.8402 218.35C84.0935 217.963 84.3235 217.563 84.5302 217.15C84.7157 216.779 85.0016 216.469 85.3552 216.253C85.7089 216.037 86.116 215.925 86.5302 215.93H89.3702V206.65H86.5302C86.116 206.654 85.7089 206.542 85.3552 206.327C85.0016 206.111 84.7157 205.8 84.5302 205.43C84.3235 205.016 84.0935 204.616 83.8402 204.23C83.6128 203.891 83.4848 203.494 83.4706 203.086C83.4565 202.678 83.5568 202.274 83.7602 201.92L85.1802 199.46L77.1802 194.82L75.7602 197.29C75.5593 197.637 75.266 197.922 74.9129 198.113C74.5598 198.303 74.1608 198.392 73.7602 198.37H72.3502C71.9509 198.391 71.5534 198.303 71.2009 198.114C70.8483 197.925 70.5541 197.644 70.3502 197.3L68.9202 194.82L60.9202 199.46L62.3402 201.93C62.5436 202.284 62.6439 202.688 62.6298 203.096C62.6156 203.504 62.4876 203.901 62.2602 204.24C62.0089 204.624 61.7785 205.021 61.5702 205.43C61.3847 205.8 61.0988 206.111 60.7452 206.327C60.3915 206.542 59.9844 206.654 59.5702 206.65H56.7002V215.93H59.5402C59.9544 215.925 60.3615 216.037 60.7152 216.253C61.0688 216.469 61.3547 216.779 61.5402 217.15C61.7485 217.559 61.9789 217.956 62.2302 218.34C62.4574 218.681 62.5852 219.079 62.5993 219.488C62.6135 219.898 62.5134 220.304 62.3102 220.66L60.8902 223.12L68.8902 227.76L70.3202 225.29C70.5237 224.945 70.8175 224.662 71.1699 224.472C71.5224 224.281 71.9201 224.191 72.3202 224.21C72.5402 224.21 72.7702 224.21 73.0002 224.21C73.2302 224.21 73.4602 224.21 73.6902 224.21C74.0901 224.192 74.4874 224.283 74.8397 224.473C75.1919 224.663 75.4859 224.946 75.6902 225.29L77.1802 227.76ZM73.0002 218.89C71.4975 218.888 70.0291 218.44 68.7806 217.604C67.5321 216.768 66.5595 215.58 65.9858 214.191C65.4122 212.802 65.2631 211.275 65.5574 209.801C65.8518 208.327 66.5764 206.974 67.6397 205.912C68.703 204.85 70.0572 204.128 71.5312 203.835C73.0052 203.543 74.5328 203.694 75.9209 204.269C77.309 204.845 78.4954 205.819 79.3301 207.069C80.1647 208.318 80.6102 209.787 80.6102 211.29C80.6115 212.289 80.4155 213.279 80.0334 214.202C79.6513 215.125 79.0907 215.964 78.3836 216.67C77.6766 217.376 76.837 217.936 75.9132 218.317C74.9894 218.698 73.9995 218.892 73.0002 218.89V218.89Z" fill="#EBEBEB"/>
<path d="M645.08 135.89L640.45 127.89L638 129.28C637.644 129.483 637.238 129.583 636.829 129.569C636.419 129.555 636.021 129.427 635.68 129.2C635.294 128.946 634.893 128.716 634.48 128.51C634.11 128.324 633.799 128.039 633.583 127.685C633.367 127.331 633.255 126.924 633.26 126.51V123.67H624V126.51C624.004 126.924 623.892 127.331 623.677 127.685C623.461 128.039 623.15 128.324 622.78 128.51C622.365 128.718 621.961 128.948 621.57 129.2C621.231 129.427 620.835 129.555 620.426 129.569C620.018 129.584 619.614 129.483 619.26 129.28L616.8 127.86L612.17 135.86L614.64 137.28C614.991 137.49 615.277 137.792 615.467 138.154C615.658 138.515 615.745 138.922 615.72 139.33C615.72 139.56 615.72 139.79 615.72 140.01C615.72 140.23 615.72 140.47 615.72 140.7C615.74 141.1 615.65 141.498 615.46 141.851C615.269 142.204 614.986 142.497 614.64 142.7L612.17 144.13L616.8 152.13L619.27 150.71C619.624 150.507 620.028 150.406 620.436 150.42C620.845 150.434 621.241 150.562 621.58 150.79C621.973 151.043 622.373 151.273 622.78 151.48C623.15 151.665 623.461 151.951 623.677 152.305C623.892 152.659 624.004 153.066 624 153.48V156.32H633.27V153.48C633.265 153.066 633.377 152.659 633.593 152.305C633.809 151.951 634.12 151.665 634.49 151.48C634.903 151.267 635.303 151.037 635.69 150.79C636.029 150.562 636.425 150.434 636.833 150.42C637.242 150.406 637.646 150.507 638 150.71L640.47 152.13L645.1 144.13L642.63 142.71C642.287 142.505 642.006 142.211 641.817 141.858C641.629 141.506 641.54 141.109 641.56 140.71C641.56 140.48 641.56 140.25 641.56 140.02C641.56 139.79 641.56 139.57 641.56 139.34C641.534 138.932 641.621 138.525 641.811 138.163C642.002 137.801 642.289 137.499 642.64 137.29L645.08 135.89ZM636.21 140C636.21 141.503 635.764 142.973 634.928 144.223C634.093 145.473 632.905 146.447 631.516 147.022C630.127 147.597 628.598 147.747 627.124 147.453C625.649 147.159 624.295 146.434 623.232 145.37C622.17 144.307 621.447 142.951 621.155 141.476C620.863 140.002 621.015 138.473 621.591 137.085C622.168 135.696 623.144 134.51 624.395 133.676C625.646 132.842 627.116 132.398 628.62 132.4C629.618 132.4 630.605 132.597 631.527 132.979C632.448 133.361 633.285 133.921 633.99 134.627C634.695 135.332 635.254 136.17 635.635 137.092C636.016 138.014 636.211 139.002 636.21 140V140Z" fill="#EBEBEB"/>
<path d="M98.5 299.07C92.11 285.94 80.93 279.2 68.33 282.93C55.73 286.66 53.78 304.22 63.18 308.66C72.58 313.1 82 300.14 87 297.48C92 294.82 98.5 299.07 98.5 299.07Z" fill="#0B75CE"/>
<path d="M104.68 334C104.68 332.42 104.59 330.83 104.53 329.25C104.423 326.09 104.31 322.93 104.19 319.77C104 314 103.36 308.34 101 303C98.8858 298.169 95.3529 294.096 90.87 291.32C89.1975 290.299 87.3898 289.518 85.5 289C83.8042 287.278 81.6423 286.089 79.28 285.58C76.3625 284.987 73.3633 284.912 70.42 285.36C70.4023 285.366 70.387 285.377 70.3762 285.393C70.3654 285.408 70.3596 285.426 70.3596 285.445C70.3596 285.463 70.3654 285.482 70.3762 285.497C70.387 285.512 70.4023 285.524 70.42 285.53C73.2247 285.165 76.0741 285.365 78.8 286.12C79.9686 286.444 81.1012 286.886 82.18 287.44C82.8767 287.803 83.5453 288.217 84.18 288.68C80.7086 287.911 77.084 288.243 73.81 289.63C73.1205 289.481 72.4148 289.42 71.71 289.45C70.7884 289.479 69.8729 289.61 68.98 289.84C67.1572 290.355 65.4141 291.119 63.8 292.11C63.71 292.16 63.8 292.3 63.89 292.25C65.4768 291.383 67.1764 290.74 68.94 290.34C69.796 290.149 70.6651 290.022 71.54 289.96C72.027 289.948 72.5143 289.961 73 290C69.4131 291.661 66.5296 294.537 64.86 298.12C64.86 298.22 64.96 298.3 65 298.2C65.9941 296.122 67.4435 294.296 69.2405 292.855C71.0375 291.415 73.136 290.398 75.38 289.88C75.66 289.81 75.94 289.77 76.23 289.72C76.1281 290.142 76.0513 290.569 76 291C75.92 291.64 75.81 292.27 75.68 292.9C75.4266 294.203 75.0926 295.488 74.68 296.75C74.2513 298.022 73.7402 299.264 73.15 300.47C72.5856 301.75 71.8706 302.959 71.02 304.07C70.94 304.16 71.09 304.27 71.15 304.17C71.91 302.98 72.79 301.89 73.48 300.66C74.1509 299.487 74.7293 298.263 75.21 297C75.6923 295.723 76.067 294.409 76.33 293.07C76.47 292.36 76.58 291.65 76.66 290.93C76.7463 290.502 76.7733 290.065 76.74 289.63C78.2226 289.402 79.7287 289.368 81.22 289.53C80.66 292.67 80.06 295.93 78.3 298.65C78.24 298.74 78.4 298.83 78.45 298.73C79.2699 297.287 79.9915 295.79 80.61 294.25C81.1927 292.757 81.5564 291.187 81.69 289.59C84.2927 289.935 86.8049 290.777 89.09 292.07C93.3932 294.573 96.8297 298.331 98.94 302.84C101.156 307.698 102.396 312.944 102.59 318.28C103.01 325 103.1 331.75 103.77 338.44C103.77 338.88 104.5 339.03 104.59 338.53C104.763 337.026 104.793 335.509 104.68 334V334Z" fill="#263238"/>
<path d="M89.9198 290.28C89.4948 289.77 89.0038 289.32 88.4598 288.94C87.9398 288.51 87.3998 288.09 86.8398 287.71C85.7354 286.938 84.5079 286.36 83.2098 286C83.1098 286 83.0698 286.14 83.2098 286.16C84.5073 286.514 85.7141 287.142 86.7498 288C87.2898 288.39 87.7498 288.81 88.2998 289.25C88.7424 289.716 89.2354 290.132 89.7698 290.49C89.7976 290.51 89.8322 290.518 89.866 290.512C89.8997 290.507 89.9299 290.488 89.9498 290.46C89.9696 290.432 89.9777 290.398 89.972 290.364C89.9664 290.33 89.9476 290.3 89.9198 290.28V290.28Z" fill="#263238"/>
<path d="M69.5299 295C68.4713 296.229 67.4926 297.525 66.5999 298.88C65.7216 300.238 64.9908 301.687 64.4199 303.2C64.4199 303.25 64.4199 303.27 64.4899 303.2C65.9511 300.34 67.6788 297.625 69.6499 295.09C69.7199 295.08 69.5899 295 69.5299 295Z" fill="#263238"/>
<path d="M83.2701 293.74C83.1356 294.562 82.8935 295.362 82.5501 296.12C82.1982 296.85 81.7903 297.553 81.3301 298.22C81.3301 298.22 81.3301 298.31 81.4101 298.28C82.5062 297.01 83.202 295.445 83.4101 293.78C83.4501 293.68 83.2901 293.64 83.2701 293.74Z" fill="#263238"/>
<path d="M103.79 299.4C103.79 299.4 112.79 288.03 130.3 292.06C146.89 295.89 154.55 326.32 137.78 329.96C121.01 333.6 123.97 305.44 117.86 300.66C113.37 297.16 106.92 297.91 103.79 299.4Z" fill="#0B75CE"/>
<path d="M143.78 308.68C142.645 307.679 141.442 306.756 140.18 305.92C139 305.107 137.71 304.464 136.35 304.01C135.67 302.974 134.908 301.994 134.07 301.08C132.534 299.424 130.758 298.008 128.8 296.88H129.32C130.243 296.83 131.167 296.83 132.09 296.88C133.953 296.997 135.779 297.451 137.48 298.22C137.58 298.22 137.65 298.11 137.55 298.07C135.824 297.327 134.019 296.784 132.17 296.45C131.269 296.29 130.355 296.21 129.44 296.21C128.95 296.21 128.44 296.21 127.98 296.3H127.7C126.109 295.496 124.431 294.876 122.7 294.45L123.19 294.32C124.045 294.131 124.91 293.988 125.78 293.89C127.518 293.707 129.272 293.744 131 294C131.11 294 131.14 293.85 131 293.84C129.248 293.63 127.483 293.56 125.72 293.63C124.241 293.666 122.77 293.858 121.33 294.2C120.279 294.007 119.217 293.883 118.15 293.83C112.06 293.58 105.42 295.83 101.67 300.83C97.9201 305.83 97.1901 312.52 96.5301 318.57C95.5074 326.987 95.2831 335.481 95.8601 343.94C95.8601 344.44 96.6001 344.35 96.6201 343.88C96.8501 336.7 97.1001 329.53 97.7901 322.38C98.1001 319.06 98.4601 315.74 99.0101 312.46C99.4098 309.638 100.218 306.889 101.41 304.3C102.704 301.648 104.758 299.441 107.31 297.96C109.867 296.5 112.715 295.622 115.65 295.39C118.287 295.174 120.941 295.424 123.49 296.13C123.411 296.64 123.411 297.16 123.49 297.67C123.551 298.318 123.678 298.958 123.87 299.58C124.064 300.164 124.308 300.729 124.6 301.27C124.93 301.87 125.33 302.41 125.7 302.98C125.7 303.07 125.9 302.98 125.83 302.88C125.113 301.857 124.651 300.678 124.48 299.44C124.37 298.852 124.299 298.257 124.27 297.66C124.27 297.21 124.27 296.76 124.27 296.31C127.041 297.154 129.63 298.511 131.9 300.31C132.32 300.65 132.73 301.01 133.13 301.38C132.552 301.909 132.054 302.519 131.65 303.19C131.014 304.073 130.462 305.014 130 306C129.192 307.942 128.647 309.984 128.38 312.07C128.386 312.088 128.398 312.103 128.413 312.114C128.428 312.125 128.446 312.13 128.465 312.13C128.484 312.13 128.502 312.125 128.517 312.114C128.532 312.103 128.544 312.088 128.55 312.07C128.878 310.052 129.555 308.106 130.55 306.32C131.014 305.436 131.532 304.581 132.1 303.76C132.4 303.34 132.7 302.92 133.02 302.52C133.19 302.31 133.38 302.09 133.54 301.85C135.593 303.87 137.27 306.241 138.49 308.85V308.85C137.662 309.72 136.97 310.712 136.44 311.79C135.812 312.915 135.268 314.085 134.81 315.29C133.963 317.613 133.264 319.988 132.72 322.4C132.726 322.418 132.738 322.433 132.753 322.444C132.768 322.455 132.786 322.46 132.805 322.46C132.824 322.46 132.842 322.455 132.857 322.444C132.872 322.433 132.884 322.418 132.89 322.4C133.423 319.974 134.253 317.623 135.36 315.4C135.88 314.31 136.44 313.23 137.02 312.17C137.622 311.184 138.169 310.166 138.66 309.12C139.825 311.665 140.503 314.406 140.66 317.2C140.66 317.31 140.83 317.3 140.83 317.2C140.508 312.815 139.165 308.565 136.91 304.79C137.97 305.24 139.04 305.68 140.07 306.23C141.38 306.928 142.599 307.784 143.7 308.78C143.75 308.88 143.86 308.75 143.78 308.68Z" fill="#263238"/>
<path d="M142 305.05C141.312 304.386 140.531 303.826 139.68 303.39C138.818 303.003 137.925 302.688 137.01 302.45C136.91 302.45 136.87 302.59 137.01 302.61C137.91 302.848 138.774 303.204 139.58 303.67C140.409 304.097 141.204 304.585 141.96 305.13C142 305.17 142.09 305.09 142 305.05Z" fill="#263238"/>
<path d="M112.39 284.21C112.39 284.21 114.06 263.79 129.24 257.21C141.92 251.68 149.18 265.93 140.24 274.65C133 281.67 121.34 278.48 112.39 284.21Z" fill="#0B75CE"/>
<path d="M137.41 261.12C135.1 262.054 132.846 263.123 130.66 264.32C128.838 265.368 127.085 266.53 125.41 267.8C125.66 267.29 125.88 266.74 126.14 266.24C126.531 265.449 126.961 264.678 127.43 263.93C128.361 262.385 129.483 260.963 130.77 259.7C130.85 259.62 130.77 259.51 130.65 259.58C129.371 260.852 128.194 262.223 127.13 263.68C126.605 264.421 126.124 265.192 125.69 265.99C125.246 266.721 124.909 267.513 124.69 268.34C124.63 268.39 124.57 268.42 124.52 268.47C121.87 270.582 119.441 272.957 117.27 275.56C117.27 275.36 117.35 275.16 117.4 274.98C117.69 273.98 118 272.98 118.32 271.98C118.969 269.868 119.894 267.851 121.07 265.98C121.13 265.89 120.98 265.81 120.92 265.9C119.726 267.76 118.663 269.701 117.74 271.71C117.338 272.686 117.004 273.688 116.74 274.71C116.524 275.38 116.36 276.065 116.25 276.76C115.59 277.6 114.94 278.45 114.32 279.32C107.81 288.6 104.53 299.82 103.75 311.05C103.518 314.401 103.462 317.763 103.58 321.12C103.601 324.502 103.899 327.876 104.47 331.21C104.47 331.42 104.84 331.36 104.84 331.15C104.76 328.2 104.46 325.26 104.4 322.31C104.34 319.36 104.4 316.39 104.68 313.44C105.159 307.544 106.272 301.717 108 296.06C109.765 290.27 112.366 284.769 115.72 279.73C116.36 279.6 116.99 279.43 117.62 279.26C118.25 279.09 119.14 278.87 119.89 278.66C121.35 278.29 122.767 277.771 124.12 277.11C124.129 277.105 124.137 277.098 124.144 277.089C124.15 277.081 124.155 277.071 124.158 277.061C124.161 277.051 124.161 277.04 124.16 277.03C124.159 277.019 124.155 277.009 124.15 277C124.145 276.991 124.138 276.983 124.129 276.976C124.121 276.97 124.111 276.965 124.101 276.962C124.091 276.959 124.08 276.959 124.07 276.96C124.059 276.961 124.049 276.965 124.04 276.97C122.698 277.696 121.245 278.196 119.74 278.45C118.56 278.69 117.32 278.84 116.13 279.11C117.23 277.51 118.4 275.96 119.66 274.47C122.556 274.733 125.475 274.517 128.3 273.83C129.802 273.465 131.278 273.005 132.72 272.45C134.24 271.87 135.72 271.11 137.18 270.45C137.3 270.4 137.18 270.23 137.12 270.29C134.4 271.775 131.431 272.748 128.36 273.16C125.651 273.591 122.913 273.818 120.17 273.84C121.25 272.6 122.36 271.39 123.55 270.26C127.55 266.46 132.27 262.97 137.55 261.15C137.56 261.25 137.51 261.08 137.41 261.12Z" fill="#263238"/>
<path d="M125.05 261.19C124.366 262.051 123.744 262.96 123.19 263.91C122.625 264.913 122.176 265.976 121.85 267.08H121.91C122.42 266.08 122.85 265.08 123.36 264.08C123.864 263.099 124.471 262.173 125.17 261.32C125.24 261.22 125.12 261.1 125.05 261.19Z" fill="#263238"/>
<path d="M100.58 280.54C100.49 281.42 98.2898 273.12 85.4498 265.76C73.7898 259.07 59.8698 241.66 71.2998 230.67C80.5298 221.8 104.84 241.14 100.58 280.54Z" fill="#0B75CE"/>
<path d="M109.42 328.11C109.244 319.472 108.576 310.852 107.42 302.29C106.408 294.425 104.592 286.685 102 279.19C101 276.49 100 273.83 98.7701 271.19C98.8504 270.172 98.8504 269.148 98.7701 268.13C98.7001 266.82 98.5801 265.52 98.4601 264.22C98.3401 262.92 98.2101 261.61 98.0601 260.31C97.9101 259.01 97.6201 257.71 97.5701 256.41C97.5701 256.3 97.3801 256.32 97.4101 256.41C97.6636 257.774 97.8174 259.154 97.8701 260.54C97.9701 261.8 98.0401 263.06 98.0801 264.33C98.1201 265.6 98.0801 266.85 98.0801 268.12C98.0801 268.57 98.0801 269.06 98.0801 269.54C96.8701 266.99 95.5801 264.48 94.1801 262.03C95.0501 256.71 93.9201 251.15 92.8301 245.94C92.8301 245.84 92.6501 245.89 92.6701 245.99C93.2033 248.709 93.4878 251.47 93.5201 254.24C93.5201 256.43 93.4601 258.61 93.4601 260.8C93.1501 260.27 92.8401 259.75 92.5201 259.23C90.8601 256.51 89.0834 253.843 87.1901 251.23C87.3453 249.968 87.3048 248.69 87.0701 247.44C86.8563 246.04 86.5455 244.657 86.1401 243.3C85.7339 241.944 85.26 240.609 84.7201 239.3C84.1601 237.95 83.4201 236.67 82.8801 235.3C82.8801 235.19 82.6701 235.3 82.7301 235.37C83.4147 236.639 83.9547 237.981 84.3401 239.37C84.764 240.683 85.1145 242.018 85.3901 243.37C85.6601 244.73 85.8801 246.08 86.0701 247.45C86.2001 248.35 86.2801 249.29 86.4301 250.2C83.6808 246.505 80.6732 243.01 77.4301 239.74C77.3601 239.66 77.2501 239.74 77.3201 239.86C82.1936 245.361 86.5457 251.304 90.3201 257.61C90.4601 257.85 90.6001 258.09 90.7301 258.33C90.0301 257.89 89.2201 257.53 88.5501 257.16C87.3101 256.47 86.0601 255.79 84.8101 255.16L81.1701 253.16C80.5501 252.81 79.9301 252.45 79.3001 252.16C78.529 251.836 77.7865 251.448 77.0801 251C76.9901 250.93 76.8801 251.08 76.9801 251.14C78.2201 251.82 79.3101 252.83 80.5101 253.59C81.7101 254.35 82.9301 255.09 84.1701 255.78C86.4501 257.06 88.9301 257.97 91.1701 259.29C92.7301 262.02 94.1701 264.82 95.4901 267.67C94.1301 266.79 92.7301 265.97 91.3201 265.17C90.4101 264.66 89.5001 264.17 88.5801 263.68C87.663 263.253 86.7974 262.723 86.0001 262.1C85.9201 262.03 85.8101 262.1 85.8801 262.22C87.3768 263.568 89.0364 264.724 90.8201 265.66C92.4701 266.66 94.1301 267.55 95.8201 268.39C97.1934 271.397 98.4301 274.46 99.5301 277.58C104.94 292.88 106.92 309.12 107.87 325.26C108.16 330.07 108.3 334.87 108.36 339.69C108.42 344.51 108.17 349.31 108.18 354.11C108.18 354.26 108.41 354.29 108.43 354.11C109.01 349.85 109.11 345.51 109.3 341.21C109.49 336.91 109.52 332.48 109.42 328.11Z" fill="#263238"/>
<path d="M86.0899 258.84C83.7477 257.801 81.4703 256.623 79.2699 255.31C77.0393 254.055 74.8764 252.683 72.7899 251.2C72.7899 251.2 72.7199 251.2 72.7899 251.26C74.759 252.849 76.8338 254.302 78.9999 255.61C81.2592 256.887 83.5973 258.019 85.9999 259C86.1099 259 86.1899 258.88 86.0899 258.84Z" fill="#263238"/>
<path d="M89.8102 241.54C89.6202 240.79 89.3902 240.06 89.1402 239.33C89.1472 239.318 89.1509 239.304 89.1509 239.29C89.1509 239.276 89.1472 239.262 89.1402 239.25C88.9802 238.83 88.8102 238.42 88.6402 238.01L88.5802 237.86C88.5802 237.78 88.5102 237.71 88.4802 237.63C88.4502 237.55 88.4302 237.63 88.4802 237.63C88.5302 237.63 88.5602 237.91 88.6102 238.06C88.6256 238.138 88.6456 238.215 88.6702 238.29C89.5177 241.142 90.1528 244.054 90.5702 247C90.5702 247.09 90.7202 247.09 90.7202 247C90.5916 245.155 90.2869 243.327 89.8102 241.54V241.54Z" fill="#263238"/>
<path d="M122.99 331.21L122.07 342.07L119.27 375.19H89.22L86.42 342.07L85.5 331.21H122.99Z" fill="#37474F"/>
<path d="M122.99 331.21L122.07 342.07H86.42L85.5 331.21H122.99Z" fill="#263238"/>
<path d="M125.94 326.86H82.5601V337.28H125.94V326.86Z" fill="#37474F"/>
<path d="M609.95 84.0801H138.36V399.54H609.95V84.0801Z" fill="#EBEBEB"/>
<path d="M606.52 87.9302H141.79V395.69H606.52V87.9302Z" fill="#263238"/>
<path d="M671.37 423.19H76.9399V444.84H671.37V423.19Z" fill="#DBDBDB"/>
<path d="M76.9399 423.19L138.37 399.54H609.95L671.38 423.19H76.9399Z" fill="#EBEBEB"/>
<path d="M143.85 414.8L183.49 399.54H564.83L604.47 414.8H143.85Z" fill="#263238"/>
<path d="M580.27 111.31H168.06V372.31H580.27V111.31Z" fill="white"/>
<path d="M580.27 111.31H167.71V121.35H580.27V111.31Z" fill="#455A64"/>
<path d="M175.69 116.33C175.69 116.823 175.544 117.304 175.27 117.713C174.997 118.123 174.608 118.442 174.153 118.631C173.698 118.819 173.197 118.868 172.714 118.772C172.231 118.676 171.787 118.439 171.439 118.091C171.091 117.743 170.854 117.299 170.758 116.816C170.662 116.333 170.711 115.832 170.9 115.377C171.088 114.922 171.407 114.533 171.817 114.26C172.226 113.986 172.707 113.84 173.2 113.84C173.86 113.84 174.494 114.102 174.961 114.569C175.428 115.036 175.69 115.67 175.69 116.33Z" fill="#C7C7C7"/>
<path d="M185.86 116.33C185.86 116.823 185.714 117.304 185.44 117.713C185.167 118.123 184.778 118.442 184.323 118.631C183.868 118.819 183.367 118.868 182.884 118.772C182.401 118.676 181.957 118.439 181.609 118.091C181.261 117.743 181.024 117.299 180.928 116.816C180.832 116.333 180.881 115.832 181.069 115.377C181.258 114.922 181.577 114.533 181.987 114.26C182.396 113.986 182.877 113.84 183.37 113.84C183.697 113.839 184.022 113.902 184.324 114.027C184.627 114.152 184.902 114.335 185.134 114.566C185.365 114.798 185.548 115.073 185.673 115.376C185.798 115.678 185.861 116.003 185.86 116.33V116.33Z" fill="white"/>
<path d="M196 116.33C196 116.823 195.854 117.304 195.58 117.713C195.307 118.123 194.918 118.442 194.463 118.631C194.008 118.819 193.507 118.868 193.024 118.772C192.541 118.676 192.098 118.439 191.749 118.091C191.401 117.743 191.164 117.299 191.068 116.816C190.972 116.333 191.021 115.832 191.21 115.377C191.398 114.922 191.717 114.533 192.127 114.26C192.536 113.986 193.018 113.84 193.51 113.84C193.837 113.839 194.162 113.902 194.464 114.027C194.767 114.152 195.042 114.335 195.274 114.566C195.505 114.798 195.689 115.073 195.813 115.376C195.938 115.678 196.001 116.003 196 116.33V116.33Z" fill="#403F57"/>
<path d="M580.27 121.35H572.95V372.3H580.27V121.35Z" fill="#DBDBDB"/>
<path d="M576.6 208.35C576.099 208.35 575.618 208.151 575.263 207.797C574.909 207.442 574.71 206.961 574.71 206.46V124.71C574.71 124.209 574.909 123.728 575.263 123.374C575.618 123.019 576.099 122.82 576.6 122.82V122.82C577.101 122.82 577.582 123.019 577.936 123.374C578.291 123.728 578.49 124.209 578.49 124.71V206.46C578.49 206.961 578.291 207.442 577.936 207.797C577.582 208.151 577.101 208.35 576.6 208.35V208.35Z" fill="#A6A6A6"/>
<path d="M522.58 186.44H227.42V231.18H522.58V186.44Z" fill="white"/>
<path d="M523.08 231.67H226.92V185.94H523.08V231.67ZM227.92 230.67H522.08V186.94H227.92V230.67Z" fill="#DBDBDB"/>
<path d="M253.48 198.56C254.054 200.219 254.446 201.936 254.65 203.68C255.083 207.083 255.083 210.527 254.65 213.93C254.442 215.674 254.046 217.391 253.47 219.05C252.889 217.392 252.493 215.675 252.29 213.93C251.863 210.527 251.863 207.083 252.29 203.68C252.505 201.936 252.904 200.22 253.48 198.56V198.56Z" fill="#0A69B9"/>
<path d="M263.72 208.8C262.063 209.39 260.346 209.792 258.6 210C256.902 210.216 255.192 210.323 253.48 210.32C251.768 210.328 250.058 210.221 248.36 210C246.612 209.798 244.891 209.402 243.23 208.82C244.894 208.247 246.613 207.852 248.36 207.64C250.058 207.423 251.768 207.317 253.48 207.32C255.192 207.325 256.902 207.435 258.6 207.65C260.343 207.846 262.06 208.231 263.72 208.8V208.8Z" fill="#0A69B9"/>
<path d="M260.72 201.56C259.953 203.139 259.017 204.631 257.93 206.01C256.886 207.366 255.753 208.653 254.54 209.86C253.331 211.074 252.045 212.21 250.69 213.26C249.308 214.347 247.812 215.283 246.23 216.05C246.997 214.468 247.933 212.972 249.02 211.59C250.07 210.235 251.206 208.95 252.42 207.74C253.632 206.532 254.918 205.4 256.27 204.35C257.65 203.265 259.142 202.33 260.72 201.56V201.56Z" fill="#0A69B9"/>
<path d="M260.72 216.05C259.142 215.28 257.65 214.345 256.27 213.26C254.915 212.21 253.629 211.074 252.42 209.86C251.196 208.651 250.053 207.361 249 206C247.913 204.618 246.977 203.122 246.21 201.54C247.794 202.304 249.29 203.239 250.67 204.33C253.384 206.427 255.817 208.864 257.91 211.58C259.005 212.964 259.948 214.463 260.72 216.05V216.05Z" fill="#0A69B9"/>
<path d="M293.42 198.56C293.994 200.219 294.386 201.936 294.59 203.68C294.804 205.378 294.914 207.088 294.92 208.8C294.923 210.515 294.816 212.229 294.6 213.93C294.387 215.673 293.991 217.389 293.42 219.05C292.839 217.392 292.443 215.675 292.24 213.93C292.019 212.229 291.912 210.515 291.92 208.8C291.917 207.088 292.024 205.378 292.24 203.68C292.447 201.936 292.842 200.219 293.42 198.56V198.56Z" fill="#0A69B9"/>
<path d="M303.66 208.8C302.002 209.382 300.285 209.778 298.54 209.98C296.842 210.196 295.132 210.303 293.42 210.3C291.705 210.308 289.991 210.201 288.29 209.98C286.545 209.777 284.828 209.381 283.17 208.8C284.831 208.228 286.547 207.833 288.29 207.62C289.991 207.404 291.705 207.297 293.42 207.3C295.132 207.305 296.842 207.416 298.54 207.63C300.284 207.833 302.001 208.226 303.66 208.8V208.8Z" fill="#0A69B9"/>
<path d="M300.66 201.56C299.893 203.139 298.957 204.631 297.87 206.01C296.826 207.366 295.693 208.653 294.48 209.86C293.27 211.074 291.984 212.21 290.63 213.26C289.248 214.347 287.752 215.283 286.17 216.05C286.937 214.468 287.873 212.972 288.96 211.59C290.01 210.235 291.146 208.95 292.36 207.74C293.567 206.527 294.854 205.394 296.21 204.35C297.589 203.263 299.081 202.327 300.66 201.56Z" fill="#0A69B9"/>
<path d="M300.66 216.05C299.081 215.283 297.589 214.347 296.21 213.26C294.851 212.215 293.565 211.079 292.36 209.86C291.156 208.649 290.034 207.359 289 206C287.913 204.618 286.977 203.122 286.21 201.54C287.794 202.304 289.29 203.239 290.67 204.33C293.384 206.427 295.817 208.864 297.91 211.58C298.984 212.967 299.906 214.466 300.66 216.05V216.05Z" fill="#0A69B9"/>
<path d="M333.35 198.56C333.932 200.218 334.328 201.935 334.53 203.68C334.746 205.378 334.853 207.088 334.85 208.8C334.858 210.515 334.751 212.229 334.53 213.93C334.327 215.675 333.931 217.392 333.35 219.05C332.777 217.39 332.385 215.674 332.18 213.93C331.961 212.229 331.85 210.515 331.85 208.8C331.856 207.088 331.966 205.378 332.18 203.68C332.384 201.936 332.776 200.219 333.35 198.56V198.56Z" fill="#0A69B9"/>
<path d="M343.6 208.8C341.942 209.381 340.225 209.777 338.48 209.98C336.778 210.196 335.065 210.303 333.35 210.3C331.638 210.308 329.928 210.201 328.23 209.98C326.485 209.778 324.767 209.382 323.11 208.8C324.77 208.227 326.486 207.832 328.23 207.62C329.928 207.404 331.638 207.297 333.35 207.3C335.065 207.305 336.778 207.415 338.48 207.63C340.224 207.834 341.94 208.227 343.6 208.8V208.8Z" fill="#0A69B9"/>
<path d="M340.6 201.56C339.833 203.139 338.897 204.631 337.81 206.01C336.766 207.366 335.633 208.653 334.42 209.86C333.21 211.074 331.924 212.21 330.57 213.26C329.188 214.347 327.692 215.283 326.11 216.05C326.874 214.466 327.809 212.97 328.9 211.59C329.949 210.238 331.082 208.952 332.29 207.74C333.503 206.529 334.792 205.397 336.15 204.35C337.529 203.263 339.021 202.327 340.6 201.56Z" fill="#0A69B9"/>
<path d="M340.6 216.05C339.021 215.283 337.529 214.347 336.15 213.26C334.79 212.213 333.501 211.077 332.29 209.86C331.079 208.647 329.946 207.358 328.9 206C327.809 204.62 326.874 203.124 326.11 201.54C327.694 202.304 329.19 203.239 330.57 204.33C333.284 206.427 335.717 208.864 337.81 211.58C338.898 212.965 339.834 214.464 340.6 216.05V216.05Z" fill="#0A69B9"/>
<path d="M373.29 198.56C373.867 200.219 374.263 201.936 374.47 203.68C374.897 207.083 374.897 210.527 374.47 213.93C374.267 215.675 373.871 217.392 373.29 219.05C372.714 217.391 372.318 215.674 372.11 213.93C371.894 212.229 371.787 210.515 371.79 208.8C371.796 207.088 371.906 205.378 372.12 203.68C372.324 201.936 372.716 200.219 373.29 198.56V198.56Z" fill="#0A69B9"/>
<path d="M383.54 208.8C381.882 209.381 380.165 209.777 378.42 209.98C376.718 210.196 375.005 210.303 373.29 210.3C371.578 210.308 369.867 210.201 368.17 209.98C366.425 209.778 364.707 209.382 363.05 208.8C364.71 208.227 366.426 207.832 368.17 207.62C369.868 207.404 371.578 207.297 373.29 207.3C375.005 207.305 376.718 207.415 378.42 207.63C380.164 207.834 381.88 208.227 383.54 208.8V208.8Z" fill="#0A69B9"/>
<path d="M380.54 201.56C379.772 203.139 378.837 204.631 377.75 206.01C376.702 207.366 375.566 208.653 374.35 209.86C373.145 211.079 371.859 212.215 370.5 213.26C369.121 214.347 367.629 215.283 366.05 216.05C366.81 214.463 367.746 212.967 368.84 211.59C369.886 210.236 371.019 208.95 372.23 207.74C373.442 206.532 374.728 205.4 376.08 204.35C377.464 203.265 378.959 202.33 380.54 201.56V201.56Z" fill="#0A69B9"/>
<path d="M380.54 216.05C378.959 215.28 377.464 214.345 376.08 213.26C374.725 212.21 373.439 211.074 372.23 209.86C371.016 208.656 369.884 207.373 368.84 206.02C367.746 204.643 366.81 203.147 366.05 201.56C367.631 202.324 369.124 203.259 370.5 204.35C371.858 205.392 373.145 206.524 374.35 207.74C375.564 208.953 376.7 210.243 377.75 211.6C378.837 212.979 379.772 214.471 380.54 216.05V216.05Z" fill="#0A69B9"/>
<path d="M413.23 198.56C413.803 200.22 414.198 201.937 414.41 203.68C414.837 207.083 414.837 210.527 414.41 213.93C414.207 215.675 413.811 217.392 413.23 219.05C412.654 217.391 412.258 215.674 412.05 213.93C411.617 210.527 411.617 207.083 412.05 203.68C412.257 201.936 412.653 200.219 413.23 198.56V198.56Z" fill="#0A69B9"/>
<path d="M423.48 208.8C421.819 209.382 420.098 209.778 418.35 209.98C416.652 210.196 414.942 210.303 413.23 210.3C411.518 210.308 409.808 210.201 408.11 209.98C406.368 209.778 404.654 209.382 403 208.8C404.66 208.226 406.376 207.831 408.12 207.62C409.818 207.404 411.528 207.297 413.24 207.3C414.952 207.305 416.662 207.415 418.36 207.63C420.104 207.834 421.821 208.226 423.48 208.8V208.8Z" fill="#0A69B9"/>
<path d="M420.48 201.56C419.713 203.142 418.774 204.634 417.68 206.01C415.579 208.72 413.147 211.156 410.44 213.26C409.061 214.347 407.569 215.283 405.99 216.05C406.75 214.463 407.685 212.967 408.78 211.59C409.826 210.236 410.959 208.95 412.17 207.74C413.382 206.532 414.668 205.4 416.02 204.35C417.402 203.263 418.897 202.327 420.48 201.56V201.56Z" fill="#0A69B9"/>
<path d="M420.48 216.05C418.897 215.283 417.402 214.347 416.02 213.26C414.665 212.21 413.379 211.074 412.17 209.86C410.956 208.656 409.824 207.373 408.78 206.02C407.685 204.643 406.75 203.147 405.99 201.56C407.571 202.324 409.063 203.259 410.44 204.35C411.798 205.392 413.085 206.524 414.29 207.74C415.503 208.951 416.636 210.24 417.68 211.6C418.774 212.976 419.713 214.468 420.48 216.05V216.05Z" fill="#0A69B9"/>
<path d="M453.17 198.56C453.744 200.219 454.137 201.936 454.34 203.68C454.773 207.083 454.773 210.527 454.34 213.93C454.132 215.674 453.736 217.391 453.16 219.05C452.579 217.392 452.183 215.675 451.98 213.93C451.553 210.527 451.553 207.083 451.98 203.68C452.195 201.936 452.594 200.22 453.17 198.56V198.56Z" fill="#0A69B9"/>
<path d="M463.41 208.8C461.753 209.383 460.035 209.779 458.29 209.98C456.592 210.196 454.882 210.303 453.17 210.3C451.458 210.308 449.747 210.201 448.05 209.98C446.301 209.778 444.581 209.382 442.92 208.8C444.584 208.227 446.303 207.832 448.05 207.62C449.748 207.403 451.458 207.297 453.17 207.3C454.882 207.305 456.592 207.415 458.29 207.63C460.034 207.832 461.751 208.225 463.41 208.8V208.8Z" fill="#0A69B9"/>
<path d="M460.41 201.56C459.65 203.143 458.714 204.636 457.62 206.01C456.578 207.369 455.446 208.655 454.23 209.86C453.02 211.074 451.734 212.21 450.38 213.26C448.999 214.345 447.508 215.28 445.93 216.05C446.69 214.466 447.622 212.97 448.71 211.59C450.814 208.883 453.249 206.45 455.96 204.35C457.34 203.265 458.832 202.33 460.41 201.56V201.56Z" fill="#0A69B9"/>
<path d="M460.41 216.05C458.832 215.28 457.34 214.345 455.96 213.26C453.256 211.153 450.821 208.721 448.71 206.02C447.622 204.64 446.69 203.144 445.93 201.56C447.51 202.326 449.002 203.262 450.38 204.35C451.734 205.397 453.02 206.529 454.23 207.74C455.443 208.951 456.576 210.24 457.62 211.6C458.714 212.974 459.65 214.467 460.41 216.05V216.05Z" fill="#0A69B9"/>
<path d="M425.47 199.76V254.22H410.08V199.76C410.08 179.05 394.35 162.21 375 162.21C355.65 162.21 339.92 179.05 339.92 199.76V254.22H324.53V199.76C324.53 170.1 347.17 146 375 146C402.83 146 425.47 170.1 425.47 199.76Z" fill="#455A64"/>
<path d="M324.53 213.92L339.92 214.54V254.22H324.53V213.92Z" fill="#263238"/>
<path d="M425.47 218.03V254.22H410.08V217.4L425.47 218.03Z" fill="#263238"/>
<path d="M445.2 223.21H304.81V350.58H445.2V223.21Z" fill="#0B75CE"/>
<path opacity="0.1" d="M445.19 223.21H375V350.58H445.19V223.21Z" fill="black"/>
<path d="M380.94 291.56L386.81 319.43H361.87L367.75 291.56C365.451 290.127 363.681 287.985 362.708 285.456C361.734 282.928 361.611 280.151 362.356 277.547C363.101 274.942 364.674 272.651 366.837 271.02C369.001 269.389 371.636 268.507 374.345 268.507C377.054 268.507 379.69 269.389 381.853 271.02C384.016 272.651 385.589 274.942 386.334 277.547C387.079 280.151 386.956 282.928 385.983 285.456C385.01 287.985 383.239 290.127 380.94 291.56Z" fill="#263238"/>
<path d="M334.22 291.51C334.22 291.51 326.88 350.27 314.82 363.51C300.34 379.37 289.82 377.05 283.98 385.23C278.14 377.04 267.63 379.37 253.13 363.5C241.07 350.27 233.74 291.5 233.74 291.5C265.52 276.08 284 258.79 284 258.79C284.55 259.33 302.93 276.33 334.22 291.51Z" fill="#EBEBEB"/>
<path d="M284 258.8V385.22C278.16 377.03 267.65 379.36 253.15 363.49C241.09 350.26 233.76 291.49 233.76 291.49C265.52 276.08 284 258.79 284 258.79V258.8Z" fill="#DBDBDB"/>
<path d="M326.43 296.25C326.43 296.25 320.23 345.88 310.04 357.06C297.79 370.48 288.91 368.51 283.97 375.42C279.03 368.51 270.15 370.48 257.91 357.06C247.72 345.88 241.53 296.25 241.53 296.25C268.38 283.25 283.97 268.6 283.97 268.6C283.97 268.6 299.58 283.21 326.43 296.25Z" fill="#DBDBDB"/>
<path d="M241.54 296.25C241.54 296.25 247.74 345.88 257.93 357.06C270.16 370.47 279 368.51 284 375.4V268.62C283.51 269.06 268 283.41 241.54 296.25Z" fill="#C7C7C7"/>
<path d="M297.896 335.927C305.581 328.242 305.581 315.781 297.896 308.095C290.21 300.41 277.749 300.41 270.064 308.095C262.378 315.781 262.378 328.242 270.064 335.927C277.749 343.613 290.21 343.613 297.896 335.927Z" fill="#403F57"/>
<path d="M281.74 334.8L272.97 325.68L276.22 322.55L281.05 327.58L291.47 311.6L295.25 314.06L281.74 334.8Z" fill="white"/>
<path d="M216.087 389.951L218.421 377.997L358.064 405.267C359.339 405.516 360.463 406.262 361.189 407.34C361.915 408.418 362.183 409.74 361.934 411.016L361.477 413.352C361.228 414.627 360.483 415.751 359.405 416.477C358.327 417.203 357.005 417.471 355.729 417.222L216.087 389.951V389.951Z" fill="#65617D"/>
<path opacity="0.1" d="M218.411 377.985L216.075 389.949L232.936 393.242L235.273 381.278L218.411 377.985Z" fill="black"/>
<path d="M165 362.74L160.89 384C160.195 387.564 160.208 391.23 160.93 394.789C161.651 398.348 163.067 401.73 165.095 404.742C167.124 407.754 169.725 410.336 172.752 412.343C175.779 414.349 179.171 415.74 182.735 416.435C186.299 417.13 189.965 417.117 193.524 416.395C197.083 415.674 200.465 414.259 203.477 412.23C206.489 410.202 209.072 407.6 211.078 404.573C213.084 401.546 214.475 398.154 215.17 394.59L219.31 373.38C220.721 366.178 219.213 358.711 215.118 352.62C211.024 346.53 204.677 342.316 197.475 340.905C190.273 339.494 182.806 341.002 176.715 345.097C170.625 349.192 166.411 355.538 165 362.74ZM210.59 368.05C209.36 374.36 203.85 378.91 197.04 380C202.94 383.59 206.34 389.86 205.1 396.17C203.46 404.61 194.15 409.91 184.32 407.99C174.49 406.07 167.88 397.66 169.53 389.23C170.76 382.92 176.27 378.37 183.09 377.23C177.18 373.66 173.79 367.37 175.02 361.06C176.67 352.61 185.96 347.33 195.78 349.25C205.6 351.17 212.28 359.61 210.63 368.05H210.59Z" fill="#65617D"/>
<path d="M219.46 372.596L215.019 395.337C214.78 396.562 215.579 397.749 216.804 397.988L217.884 398.199C219.109 398.438 220.296 397.639 220.535 396.414L224.976 373.674C225.215 372.449 224.416 371.262 223.191 371.022L222.111 370.811C220.886 370.572 219.699 371.371 219.46 372.596Z" fill="#65617D"/>
<path d="M224.976 373.676L220.535 396.416C220.296 397.641 221.095 398.828 222.32 399.067L223.4 399.278C224.625 399.517 225.812 398.718 226.051 397.493L230.492 374.753C230.731 373.528 229.932 372.341 228.707 372.101L227.627 371.891C226.402 371.651 225.215 372.45 224.976 373.676Z" fill="#65617D"/>
<path d="M324.69 393.62L328.85 394.43L331.2 382.35L334.76 383.04L333.53 389.34L337.68 390.15L338.91 383.85L342.06 384.46L340.11 394.42L344.27 395.24L346.22 385.28L350.68 386.15L348.09 399.45L352.25 400.26L354.85 386.96L359.07 387.79L355.75 404.79L318.59 397.53L321.9 380.53L327.04 381.53L324.69 393.62Z" fill="#65617D"/>
<path d="M468 331.35L440.75 353.35C435.52 357.53 431.01 361.29 428.86 363.46C428.305 363.916 427.857 364.49 427.55 365.14C427.55 365.14 427.55 365.14 427.55 365.2C427.74 367.59 459.94 410.36 461.55 411.47C463.16 412.58 466.48 408.04 466.55 405.39C466.62 402.74 461.62 380.84 461.62 380.84L488.62 358.58L468 331.35Z" fill="#C95F50"/>
<path d="M446.31 348.86L440.72 353.37C435.49 357.55 430.98 361.31 428.83 363.48C428.328 363.986 427.888 364.55 427.52 365.16C427.52 365.16 427.52 365.16 427.52 365.22C427.71 367.61 459.91 410.38 461.52 411.49C463.13 412.6 466.45 408.06 466.52 405.41C466.59 402.76 461.59 380.86 461.59 380.86L467.33 376.35L446.31 348.86Z" fill="#EBEBEB"/>
<path d="M461.49 411.52C459.86 410.41 427.67 367.65 427.49 365.24C427.4 364.33 433.36 359.24 440.73 353.38L440.97 353.19L462 380.55L461.53 380.89C461.53 380.89 466.53 402.77 466.46 405.44C466.39 408.11 463.11 412.64 461.49 411.52Z" fill="#403F57"/>
<path d="M462.78 409.79C457.53 402.45 435.67 373.34 429.92 366.48C429.92 366.42 429.84 366.48 429.92 366.48C434.92 373.87 457.06 402.81 462.71 409.85C462.79 410 462.9 410 462.78 409.79Z" fill="#263238"/>
<path d="M463.22 383.27C461.61 380.04 458.57 376.89 454.91 376.27C454.77 376.27 454.74 376.44 454.84 376.52C457.749 378.56 460.431 380.907 462.84 383.52C462.876 383.561 462.927 383.587 462.981 383.594C463.036 383.602 463.091 383.589 463.137 383.559C463.183 383.528 463.217 383.483 463.232 383.43C463.247 383.377 463.243 383.32 463.22 383.27V383.27Z" fill="#263238"/>
<path d="M463.53 386.25C461.92 383.01 458.87 379.87 455.22 379.25C455.08 379.25 455.05 379.43 455.14 379.5C458.049 381.541 460.731 383.887 463.14 386.5C463.156 386.526 463.178 386.548 463.203 386.565C463.228 386.582 463.256 386.595 463.286 386.601C463.315 386.608 463.346 386.608 463.376 386.603C463.406 386.598 463.434 386.586 463.46 386.57C463.486 386.554 463.508 386.532 463.525 386.507C463.543 386.482 463.555 386.454 463.561 386.424C463.568 386.395 463.568 386.364 463.563 386.334C463.558 386.304 463.546 386.276 463.53 386.25Z" fill="#263238"/>
<path d="M463.83 389.22C462.23 385.99 459.18 382.85 455.53 382.22C455.39 382.22 455.35 382.4 455.45 382.47C458.357 384.513 461.039 386.859 463.45 389.47C463.466 389.495 463.487 389.516 463.512 389.533C463.537 389.55 463.564 389.562 463.594 389.568C463.623 389.574 463.653 389.574 463.682 389.568C463.712 389.563 463.74 389.551 463.765 389.535C463.79 389.519 463.811 389.497 463.828 389.473C463.845 389.448 463.856 389.42 463.862 389.391C463.868 389.362 463.869 389.332 463.863 389.302C463.857 389.273 463.846 389.245 463.83 389.22V389.22Z" fill="#263238"/>
<path d="M482.7 305.13C480.77 314.66 441.24 352.67 441.24 352.67L468.8 384.48C468.8 384.48 524.92 328.48 521.99 307.41C519.44 289.1 491.99 215.47 491.99 215.47H460.41C460.41 215.47 484.59 295.76 482.7 305.13Z" fill="#37474F"/>
<path d="M482.7 305.13C480.77 314.66 441.24 352.67 441.24 352.67L468.8 384.48C468.8 384.48 524.92 328.48 521.99 307.41C519.44 289.1 491.99 215.47 491.99 215.47H460.41C460.41 215.47 484.59 295.76 482.7 305.13Z" fill="#37474F"/>
<path d="M471.93 376.92C468.27 372.36 469.39 373.62 465.68 369.1C463.86 366.89 451.91 352.38 449.85 350.61C449.85 350.61 449.73 350.61 449.76 350.69C451.14 353.02 463.34 367.32 465.2 369.5C469 373.94 467.96 372.63 471.8 377.03C471.88 377.11 472 377 471.93 376.92Z" fill="#263238"/>
<path d="M486.63 300.49C486.17 298.11 485.63 295.74 485.16 293.37C484.127 288.53 483.037 283.707 481.89 278.9C479.61 269.36 477.133 259.873 474.46 250.44C471.77 240.98 468.92 231.53 465.63 222.25C465.23 221.1 464.81 219.96 464.39 218.82C464.39 218.801 464.383 218.784 464.369 218.771C464.356 218.757 464.339 218.75 464.32 218.75C464.301 218.75 464.284 218.757 464.27 218.771C464.257 218.784 464.25 218.801 464.25 218.82C467.1 228.12 470.03 237.39 472.69 246.73C475.35 256.07 477.8 265.41 480.12 274.81C481.28 279.53 482.36 284.27 483.42 289.01C483.94 291.34 484.42 293.68 484.94 296.01C485.557 298.381 486.002 300.794 486.27 303.23C486.342 305.538 485.692 307.81 484.41 309.73C483.22 311.67 481.83 313.49 480.48 315.32C477.78 318.98 452.04 347.67 451.21 348.45C451.14 348.51 451.21 348.6 451.31 348.54C454.76 345.44 476.6 321.8 479.37 318.14C480.75 316.33 482.08 314.5 483.37 312.64C484.683 310.961 485.741 309.098 486.51 307.11C487.117 304.95 487.159 302.67 486.63 300.49V300.49Z" fill="#263238"/>
<path d="M486.56 215.47L480.82 290.82C475.34 265.03 460.41 215.47 460.41 215.47H486.56Z" fill="#263238"/>
<path d="M538.48 423.17C536.61 423.77 483.08 422.94 481.07 421.62C480.744 420.981 480.566 420.277 480.55 419.56C480.545 419.54 480.545 419.52 480.55 419.5C480.16 416.5 479.97 410.62 479.87 403.92L478.69 398.13H513L514.34 404.35C514.34 404.35 534.69 413.84 536.76 415.53C538.83 417.22 540.37 422.58 538.48 423.17Z" fill="#EBEBEB"/>
<path d="M538.48 423.17C536.6 423.77 483.08 422.94 481.07 421.62C480.29 421.13 479.96 413.32 479.83 403.88V403.58L514.36 403.73V404.32C514.36 404.32 534.7 413.8 536.76 415.49C538.82 417.18 540.36 422.58 538.48 423.17Z" fill="#403F57"/>
<path d="M537.91 421.09C528.91 420.73 492.48 420.09 483.54 420.45C483.47 420.45 483.47 420.5 483.54 420.51C492.47 421.06 528.88 421.37 537.91 421.24C538.1 421.23 538.1 421.1 537.91 421.09Z" fill="#263238"/>
<path d="M517.24 404.47C513.7 403.75 509.35 404.23 506.59 406.72C506.49 406.81 506.59 406.96 506.74 406.93C510.151 405.889 513.665 405.218 517.22 404.93C517.25 404.931 517.28 404.927 517.308 404.916C517.337 404.906 517.363 404.89 517.385 404.87C517.407 404.849 517.425 404.825 517.438 404.797C517.451 404.77 517.458 404.74 517.46 404.71C517.461 404.68 517.456 404.65 517.446 404.621C517.436 404.593 517.42 404.567 517.399 404.544C517.379 404.522 517.354 404.504 517.327 404.491C517.299 404.479 517.27 404.471 517.24 404.47V404.47Z" fill="#263238"/>
<path d="M519.77 406.05C516.24 405.33 511.88 405.81 509.13 408.3C509.03 408.4 509.13 408.55 509.28 408.51C512.688 407.47 516.198 406.799 519.75 406.51C519.811 406.513 519.87 406.491 519.915 406.45C519.96 406.408 519.987 406.351 519.99 406.29C519.992 406.229 519.971 406.169 519.929 406.124C519.888 406.079 519.831 406.053 519.77 406.05V406.05Z" fill="#263238"/>
<path d="M522.31 407.64C518.77 406.92 514.42 407.4 511.67 409.88C511.56 409.98 511.67 410.13 511.82 410.1C515.229 409.065 518.739 408.394 522.29 408.1C522.32 408.101 522.35 408.097 522.378 408.086C522.407 408.076 522.433 408.06 522.455 408.04C522.477 408.019 522.495 407.995 522.508 407.967C522.521 407.94 522.528 407.91 522.53 407.88C522.531 407.85 522.526 407.82 522.516 407.791C522.506 407.763 522.49 407.737 522.469 407.715C522.449 407.692 522.424 407.674 522.397 407.661C522.369 407.649 522.34 407.641 522.31 407.64V407.64Z" fill="#263238"/>
<path d="M489 215.47C487.768 220.669 486.86 225.939 486.28 231.25C485.63 237.87 484.8 243.73 483.92 244.46C483.04 245.19 477.92 248.46 476.24 249.46C476.24 249.46 491.82 296.7 495.84 312.46C501.67 335.28 515.63 403.77 515.63 403.77H478.43C478.43 403.77 467.12 338.58 462.17 316.84C457.93 298.21 441.69 242.32 441.69 242.32C439.976 238.011 439.207 233.384 439.433 228.753C439.659 224.121 440.875 219.592 443 215.47C443 215.47 489 215.45 489 215.47Z" fill="#37474F"/>
<path d="M514.27 396.57C508.42 396.57 510.1 396.47 504.27 396.5C501.41 396.5 482.61 396.64 479.95 397.13C479.934 397.13 479.918 397.136 479.907 397.148C479.896 397.159 479.89 397.174 479.89 397.19C479.89 397.206 479.896 397.221 479.907 397.232C479.918 397.244 479.934 397.25 479.95 397.25C482.63 397.65 501.42 397.19 504.28 397.12C510.13 396.97 508.45 396.95 514.28 396.74C514.297 396.733 514.312 396.721 514.322 396.705C514.332 396.689 514.336 396.67 514.335 396.651C514.334 396.633 514.327 396.615 514.316 396.6C514.304 396.586 514.288 396.575 514.27 396.57V396.57Z" fill="#263238"/>
<path d="M486.53 242.59C482.917 244.578 479.484 246.877 476.27 249.46C476.25 249.481 476.238 249.509 476.236 249.538C476.234 249.567 476.242 249.596 476.258 249.62C476.274 249.644 476.298 249.662 476.325 249.671C476.353 249.68 476.383 249.68 476.41 249.67C479.89 247.49 483.41 245.37 486.8 243C486.841 242.959 486.868 242.906 486.874 242.848C486.88 242.79 486.866 242.732 486.834 242.684C486.802 242.635 486.754 242.599 486.699 242.582C486.643 242.565 486.584 242.568 486.53 242.59Z" fill="#263238"/>
<path d="M483.69 216.89C483.69 216.76 483.43 216.77 483.45 216.89C484.097 221.049 484.535 225.237 484.76 229.44C484.89 231.38 484.99 242.23 481.54 241.97C480.96 241.97 480.54 241.43 480.37 240.6C480.214 239.5 480.194 238.385 480.31 237.28C480.31 235 480.31 232.73 480.13 230.45C479.864 226.24 479.167 222.068 478.05 218C478.05 217.971 478.038 217.943 478.017 217.922C477.997 217.902 477.969 217.89 477.94 217.89C477.91 217.89 477.882 217.902 477.862 217.922C477.841 217.943 477.83 217.971 477.83 218C478.828 223.776 479.39 229.619 479.51 235.48C479.51 238.31 478.78 242.68 481.73 242.65C484.68 242.62 485.56 235.37 485.62 233.42C485.694 227.85 485.046 222.293 483.69 216.89V216.89Z" fill="#263238"/>
<path d="M481.67 242.27C481.487 243.03 481.353 243.802 481.27 244.58C481.16 245.195 481.16 245.825 481.27 246.44C481.28 246.464 481.296 246.484 481.318 246.498C481.339 246.512 481.364 246.52 481.39 246.52C481.416 246.52 481.441 246.512 481.462 246.498C481.483 246.484 481.5 246.464 481.51 246.44C481.778 245.845 481.947 245.21 482.01 244.56C482.16 243.84 482.32 243.13 482.45 242.4C482.467 242.296 482.443 242.19 482.382 242.105C482.321 242.02 482.228 241.962 482.125 241.945C482.021 241.928 481.915 241.952 481.83 242.013C481.745 242.074 481.687 242.166 481.67 242.27V242.27Z" fill="#263238"/>
<path d="M447 242.08C450.204 241.902 453.371 241.303 456.42 240.3C459.881 239.194 463.019 237.257 465.56 234.66C466.998 233.233 468.184 231.573 469.07 229.75C469.07 229.68 469.21 229.75 469.19 229.81C468.646 231.575 467.808 233.235 466.71 234.72C465.573 236.191 464.225 237.485 462.71 238.56C459.71 240.759 456.179 242.123 452.48 242.51C450.655 242.794 448.795 242.766 446.98 242.43C446.69 242.39 446.77 242.1 447 242.08Z" fill="#263238"/>
<path d="M474.08 376.07C473.99 375.21 473.87 374.35 473.75 373.49C473.52 371.85 473.24 370.2 472.98 368.56C472.48 365.25 471.91 361.95 471.32 358.66C470.16 352.09 468.81 345.54 467.39 339.02C466.58 335.34 465.65 331.7 464.66 328.02C464.6 327.76 464.24 327.89 464.28 328.13C464.88 331.47 465.46 334.8 466.14 338.13C466.82 341.46 467.5 344.74 468.14 348.05C469.44 354.59 470.65 361.16 471.95 367.7C472.31 369.55 472.65 371.4 473.01 373.25C473.19 374.17 473.37 375.1 473.57 376.01C473.77 376.92 474.05 377.83 474.2 378.75C474.2 378.84 474.35 378.8 474.34 378.75C474.2 377.86 474.19 377 474.08 376.07Z" fill="#263238"/>
<path d="M499.74 326.64C498.5 320.47 496.83 314.38 495.15 308.31C491.77 296.11 487.79 284.08 483.82 272.05C482.673 268.59 481.526 265.127 480.38 261.66C479.81 259.93 477.01 250.58 476.66 249.66C476.654 249.645 476.644 249.631 476.63 249.622C476.617 249.613 476.601 249.608 476.585 249.608C476.568 249.608 476.553 249.613 476.539 249.622C476.526 249.631 476.515 249.645 476.51 249.66C477.32 252.84 478.42 257.48 479.35 260.66C480.28 263.84 481.27 266.87 482.24 269.96C484.14 276.05 486.07 282.14 487.91 288.24C491.56 300.31 495.18 312.38 498.14 324.64C498.97 328.08 499.8 331.51 500.55 334.96C501.3 338.41 501.96 341.87 502.68 345.32C502.68 345.42 502.86 345.39 502.85 345.32C502.23 339.06 501 332.84 499.74 326.64Z" fill="#263238"/>
<path d="M476.61 358.93C474.56 347.16 472.11 335.45 469.39 323.81C466.67 312.17 463.62 300.49 460.27 288.96C456.92 277.43 453.21 265.96 449.27 254.66C447.263 249.329 445.577 243.882 444.22 238.35C442.99 232.85 442.37 226.9 443.65 221.35C443.962 219.942 444.387 218.561 444.92 217.22C444.92 217.13 444.82 217.05 444.78 217.14C440.31 227.57 443.21 238.97 446.62 249.25C448.48 254.88 450.47 260.47 452.32 266.11C454.17 271.75 456.01 277.71 457.75 283.55C461.18 295.12 464.37 306.76 467.22 318.48C470.07 330.2 472.62 342 474.86 353.86C477.1 365.72 478.99 377.71 480.91 389.66C481.16 391.22 481.35 392.78 481.56 394.34C481.56 394.43 481.7 394.43 481.69 394.34C480.21 382.49 478.65 370.69 476.61 358.93Z" fill="#263238"/>
<path d="M475.85 166.08C480.23 182.08 492.85 201.38 498.85 204.08C504.07 206.4 528.29 197.44 537.43 191.62C540.03 189.96 529.28 174.99 526.15 176.03C515.92 179.44 504.79 184.48 503.93 184.19C502.19 183.6 491.33 170.28 483.42 161.32C474.55 151.25 474.11 159.71 475.85 166.08Z" fill="#C95F50"/>
<path d="M554.7 178.05C556.76 177.19 572.61 176.69 572.61 173.25C572.61 169.81 552.43 170.77 552.43 170.77L554.7 178.05Z" fill="#C95F50"/>
<path d="M524.3 178.45C527.07 175.01 529.51 171.3 531.92 170.62C533.58 170.15 551.53 170.92 554.33 170.75C557.13 170.58 567.14 170.84 567.33 173.3C567.66 176.77 555.82 176.74 554.56 178.52C550.19 184.65 533.56 193.72 533.56 193.72L524.3 178.45Z" fill="#C95F50"/>
<path d="M567.64 173.35C567.456 172.711 567.048 172.161 566.49 171.8C565.179 171.083 563.704 170.721 562.21 170.75C560.022 170.553 557.821 170.537 555.63 170.7C555.63 170.7 555.63 170.77 555.63 170.78C557.28 170.78 558.91 170.78 560.55 170.96C562.054 171.016 563.547 171.244 565 171.64C565.652 171.808 566.244 172.154 566.71 172.64C566.871 172.823 566.982 173.044 567.033 173.282C567.084 173.52 567.072 173.767 567 174C566.53 175.51 563.54 176 562.16 176.27C560.36 176.67 558.49 177.02 556.68 177.39C556.6 177.39 556.68 177.53 556.68 177.51C558.56 177.14 560.54 177 562.43 176.66C564.008 176.506 565.521 175.956 566.83 175.06C567.115 174.883 567.342 174.627 567.486 174.324C567.63 174.021 567.683 173.683 567.64 173.35Z" fill="#263238"/>
<path d="M523.61 176.33L537.81 197.12C537.81 197.12 515.81 208.12 507.39 207.95C499.39 207.76 496.48 206.58 493.95 204.19C492.38 202.71 483.47 190.12 476.2 169.19C470.1 151.65 479.13 154.19 487.2 163.95C491.2 168.79 504.04 183.22 504.68 183.17C505.32 183.12 523.61 176.33 523.61 176.33Z" fill="#403F57"/>
<path d="M519.24 179.71C521.37 182.79 523.41 185.93 525.42 189.09C526.42 190.63 530.1 196.93 531.17 198.72C531.17 198.79 531.02 198.91 530.97 198.84C529.86 197.26 525.85 190.97 524.88 189.41C522.88 186.22 520.99 183.02 519.15 179.77C519.146 179.764 519.143 179.757 519.142 179.75C519.14 179.743 519.14 179.736 519.142 179.729C519.143 179.722 519.146 179.716 519.15 179.71C519.154 179.704 519.159 179.699 519.165 179.695C519.171 179.691 519.177 179.688 519.184 179.687C519.191 179.685 519.198 179.685 519.205 179.687C519.212 179.688 519.219 179.691 519.225 179.695C519.231 179.699 519.236 179.704 519.24 179.71Z" fill="#263238"/>
<path opacity="0.1" d="M511.65 207.42C510.256 207.763 508.826 207.941 507.39 207.95C499.39 207.76 496.48 206.58 493.95 204.19C492.39 202.71 483.47 190.13 476.21 169.19C475.069 166.291 474.394 163.23 474.21 160.12C474.21 159.93 474.21 159.73 474.21 159.55C474.2 159.373 474.2 159.196 474.21 159.02C474.226 158.875 474.249 158.732 474.28 158.59C474.382 157.937 474.69 157.334 475.16 156.87C480.13 163.53 503.43 195 511.65 207.42Z" fill="black"/>
<path d="M563.78 167.8H509.94V170.69H563.78V167.8Z" fill="#C7C7C7"/>
<path d="M563.78 167.8V170.69H531.08L533.29 167.8H563.78Z" fill="#A6A6A6"/>
<path d="M535.67 170.69H571.68L590.42 138.87H554.41L535.67 170.69Z" fill="#C7C7C7"/>
<path d="M561.7 154.76C561.03 156.23 561.52 157.76 562.8 158.22C563.516 158.385 564.268 158.288 564.918 157.944C565.568 157.601 566.073 157.035 566.34 156.35C567.01 154.88 566.52 153.35 565.24 152.89C564.524 152.727 563.772 152.825 563.123 153.168C562.473 153.512 561.968 154.076 561.7 154.76V154.76Z" fill="white"/>
<path d="M439.53 226.43C439.66 226.57 495.9 226.17 496.41 225.59C497.11 224.77 483.79 163.97 477.94 156.5C476.69 154.9 472.61 154.5 469.15 154.96C468.248 155.072 467.358 155.263 466.49 155.53H466.4C465.697 155.749 465.038 156.088 464.45 156.53C454.9 164.32 447.07 191.28 445.26 199.37C442.26 212.71 439.06 225.9 439.53 226.43Z" fill="#EBEBEB"/>
<path d="M465.8 155.67C465.8 155.67 469.47 180.67 470.34 187.19C471.21 193.71 470.34 227.94 470.34 227.94L435.05 230.94C435.05 230.94 442.45 208.18 442.52 206.74C442.52 206.74 448.37 179.39 454.41 168.1C457.108 163.07 461.024 158.796 465.8 155.67V155.67Z" fill="#403F57"/>
<path d="M477.55 156.11C477.55 156.11 482.32 181.43 482.74 183.52C483.16 185.61 489.27 226.76 489.27 226.76L498.1 226.95L493.31 208.15C493.31 208.15 483.06 160 477.55 156.11Z" fill="#403F57"/>
<path d="M475.56 164.2C472.88 164.51 467.8 160.78 466.38 156.83C466.29 156.55 467.09 153.98 467.91 150.83C468.4 148.9 468.91 146.75 469.22 144.75C469.28 144.34 481.28 149.75 481.28 149.75C480.166 152.134 479.35 154.646 478.85 157.23C478.826 157.509 478.826 157.79 478.85 158.07V158.21C478.81 159.82 478.44 163.88 475.56 164.2Z" fill="#C95F50"/>
<path d="M478.81 158.09C478.815 158.136 478.815 158.183 478.81 158.23C478.377 158.214 477.946 158.167 477.52 158.09C470.17 156.76 469.68 147.21 469.67 144.81C471.85 145.48 481.29 149.81 481.29 149.81C480.177 152.198 479.361 154.713 478.86 157.3C478.826 157.562 478.809 157.826 478.81 158.09V158.09Z" fill="#263238"/>
<path d="M469.36 128.8C467.43 133.1 468.17 146.3 470.98 149.57C475.06 154.32 482.55 155.67 486.79 150.57C490.9 145.64 489.64 128.45 486.42 125.39C481.68 120.89 472.2 122.46 469.36 128.8Z" fill="#C95F50"/>
<path d="M479.08 138.15C479.08 138.15 479.01 138.15 479.02 138.23C479.09 139.12 479.02 140.14 478.24 140.48C478.24 140.48 478.24 140.54 478.24 140.53C479.22 140.34 479.29 139 479.08 138.15Z" fill="#263238"/>
<path d="M478.24 137.26C476.81 137.26 476.84 140.1 478.17 140.13C479.5 140.16 479.44 137.29 478.24 137.26Z" fill="#263238"/>
<path d="M484.56 138.1C484.56 138.1 484.63 138.15 484.63 138.18C484.63 139.07 484.74 140.1 485.55 140.38C485.55 140.38 485.55 140.44 485.55 140.43C484.56 140.31 484.4 139 484.56 138.1Z" fill="#263238"/>
<path d="M485.34 137.17C486.77 137.04 486.92 139.91 485.59 140.03C484.26 140.15 484.14 137.27 485.34 137.17Z" fill="#263238"/>
<path d="M477.09 136C477.48 135.89 477.82 135.73 478.2 135.59C478.61 135.504 478.98 135.282 479.25 134.96C479.315 134.844 479.34 134.71 479.322 134.578C479.304 134.446 479.244 134.324 479.15 134.23C478.93 134.073 478.673 133.977 478.404 133.952C478.135 133.928 477.864 133.975 477.62 134.09C477.089 134.254 476.64 134.611 476.36 135.09C476.308 135.2 476.289 135.322 476.303 135.443C476.317 135.563 476.365 135.677 476.441 135.772C476.517 135.867 476.618 135.938 476.733 135.979C476.848 136.019 476.971 136.026 477.09 136V136Z" fill="#263238"/>
<path d="M486.44 134.75C486.052 134.677 485.668 134.583 485.29 134.47C484.875 134.424 484.485 134.245 484.18 133.96C484.098 133.852 484.054 133.72 484.054 133.585C484.054 133.45 484.098 133.318 484.18 133.21C484.382 133.033 484.627 132.912 484.89 132.859C485.153 132.806 485.426 132.824 485.68 132.91C486.22 133.011 486.704 133.306 487.04 133.74C487.109 133.842 487.147 133.962 487.15 134.085C487.154 134.208 487.122 134.329 487.06 134.435C486.997 134.541 486.905 134.626 486.795 134.682C486.686 134.738 486.562 134.761 486.44 134.75V134.75Z" fill="#263238"/>
<path d="M478.79 146.38C479 146.59 479.22 146.87 479.54 146.9C479.887 146.895 480.228 146.813 480.54 146.66C480.54 146.66 480.59 146.66 480.54 146.71C480.413 146.885 480.241 147.023 480.042 147.11C479.843 147.196 479.625 147.227 479.41 147.2C479.228 147.157 479.064 147.06 478.938 146.923C478.811 146.786 478.728 146.614 478.7 146.43C478.69 146.37 478.75 146.35 478.79 146.38Z" fill="#263238"/>
<path d="M479.69 143.71C479.914 144.056 480.208 144.351 480.552 144.578C480.896 144.805 481.284 144.959 481.69 145.03C482.051 145.085 482.418 145.085 482.78 145.03C482.849 145.04 482.92 145.04 482.99 145.03H483.18C483.228 145.021 483.271 144.997 483.304 144.961C483.336 144.925 483.356 144.879 483.36 144.83V144.83C483.365 144.8 483.365 144.77 483.36 144.74V144.74V144.66C483.36 143.97 483.29 142.93 483.29 142.93C483.54 143.05 484.83 143.61 484.8 143.25C484.682 140.161 484.253 137.093 483.52 134.09C483.52 134.069 483.511 134.048 483.496 134.033C483.481 134.018 483.461 134.01 483.44 134.01C483.418 134.01 483.398 134.018 483.383 134.033C483.368 134.048 483.36 134.069 483.36 134.09C483.45 136.94 484.04 139.76 484.18 142.63C483.722 142.424 483.237 142.282 482.74 142.21C482.64 142.21 482.93 144.21 482.9 144.53C482.339 144.595 481.771 144.545 481.23 144.386C480.689 144.226 480.185 143.959 479.75 143.6C479.71 143.58 479.64 143.64 479.69 143.71Z" fill="#263238"/>
<path d="M482.41 144.73C482.039 145.22 481.55 145.608 480.99 145.86C480.672 145.986 480.323 146.01 479.99 145.93C479.28 145.75 479.26 145.1 479.38 144.54C479.449 144.242 479.553 143.953 479.69 143.68C480.462 144.311 481.415 144.678 482.41 144.73Z" fill="#263238"/>
<path d="M481 145.86C480.682 145.986 480.332 146.01 480 145.93C479.29 145.75 479.27 145.1 479.39 144.54C479.767 144.549 480.13 144.683 480.422 144.923C480.714 145.162 480.917 145.492 481 145.86V145.86Z" fill="#FF9BBC"/>
<path d="M468.26 140.21C468.26 140.21 465.07 132.29 466.16 128.21C466.65 126.36 469.42 125.51 469.42 125.51C469.345 124.714 469.492 123.914 469.845 123.197C470.198 122.48 470.743 121.875 471.42 121.45C473.99 119.71 479.31 121.06 479.31 121.06C479.31 121.06 483.63 116.58 488.25 119.39C492.87 122.2 488.73 127.28 488.73 127.28C488.73 127.28 490.13 130.15 485.36 131.44C480.59 132.73 472.22 129.33 472.22 129.33C472.132 132.434 471.582 135.507 470.59 138.45C470.398 138.927 470.08 139.343 469.669 139.654C469.259 139.964 468.771 140.156 468.26 140.21V140.21Z" fill="#263238"/>
<path d="M480.19 121.25C479.156 120.624 478.006 120.212 476.81 120.04C475.747 119.865 474.663 119.865 473.6 120.04C472.651 120.152 471.75 120.519 470.993 121.102C470.236 121.684 469.651 122.461 469.3 123.35C469.148 123.818 469.093 124.311 469.136 124.8C469.179 125.29 469.319 125.766 469.55 126.2C469.55 126.2 469.62 126.2 469.6 126.2C468.69 124.59 469.6 122.49 471.02 121.5C472.674 120.479 474.643 120.095 476.56 120.42C477.789 120.607 478.991 120.943 480.14 121.42C480.151 121.423 480.163 121.424 480.174 121.423C480.186 121.422 480.197 121.418 480.207 121.413C480.217 121.407 480.226 121.4 480.234 121.391C480.241 121.381 480.246 121.371 480.25 121.36C480.253 121.349 480.254 121.337 480.253 121.325C480.252 121.314 480.248 121.303 480.243 121.292C480.237 121.282 480.229 121.273 480.22 121.266C480.211 121.259 480.201 121.253 480.19 121.25V121.25Z" fill="#263238"/>
<path d="M491.43 122.33C491.311 121.636 491.02 120.984 490.586 120.43C490.151 119.877 489.585 119.44 488.94 119.16C487.482 118.435 485.823 118.224 484.23 118.56C482.629 118.902 481.148 119.665 479.94 120.77C479.94 120.77 479.94 120.84 479.94 120.77C481.023 119.799 482.348 119.137 483.775 118.856C485.202 118.574 486.679 118.683 488.05 119.17C488.688 119.342 489.274 119.669 489.755 120.122C490.236 120.575 490.597 121.141 490.806 121.768C491.015 122.395 491.066 123.064 490.953 123.715C490.84 124.367 490.568 124.98 490.16 125.5C489.202 126.72 487.92 127.645 486.46 128.17C486.46 128.17 486.46 128.24 486.46 128.22C487.827 127.806 489.068 127.057 490.07 126.04C490.547 125.553 490.915 124.971 491.149 124.331C491.384 123.692 491.48 123.009 491.43 122.33V122.33Z" fill="#263238"/>
<path d="M471.28 139.87C471.28 139.87 468.8 135.38 466.79 136.23C464.78 137.08 466.34 143.36 468.48 144.43C468.745 144.584 469.04 144.684 469.345 144.722C469.65 144.76 469.96 144.737 470.256 144.653C470.551 144.569 470.827 144.426 471.067 144.233C471.306 144.04 471.505 143.801 471.65 143.53L471.28 139.87Z" fill="#C95F50"/>
<path d="M467.28 138C467.28 138 467.28 138 467.28 138.06C467.959 138.491 468.54 139.06 468.985 139.73C469.429 140.4 469.727 141.157 469.86 141.95C469.785 141.785 469.676 141.638 469.539 141.519C469.403 141.4 469.242 141.312 469.068 141.261C468.895 141.21 468.712 141.196 468.533 141.222C468.354 141.248 468.182 141.312 468.03 141.41C468.03 141.41 468.03 141.51 468.03 141.5C468.315 141.441 468.611 141.472 468.878 141.589C469.145 141.705 469.369 141.901 469.52 142.15C469.76 142.571 469.961 143.012 470.12 143.47C470.18 143.62 470.44 143.57 470.4 143.4C470.65 141.4 469.4 138.45 467.28 138Z" fill="#263238"/>
<path d="M458.71 161.43C444.55 177.33 433.9 199.72 434 205C434.14 210.8 441.52 231.23 448.55 240.83C449.46 242.06 454.94 241.54 459.55 238.99C464.44 236.3 468.45 231.5 467.49 230.07C463.88 224.7 455.33 203.9 455.41 200.65C455.48 197.65 462.49 179.23 465.16 168.58C467.77 158.33 465.3 154 458.71 161.43Z" fill="#C95F50"/>
<path d="M440 239.24L466.37 226.36C466.37 226.36 456 203.22 456 200.72C456 198.22 462.82 178.66 465.39 169.62C467.96 160.58 466.97 150.42 455.71 164.09C444.45 177.76 434.61 198.09 433.49 203.49C432.37 208.89 440 239.24 440 239.24Z" fill="#403F57"/>
<path d="M457.32 194.08C457.86 192.367 458.42 190.657 459 188.95C459.65 187.04 460.32 185.14 461 183.25C461.68 181.36 462.45 179.6 463.19 177.78C463.19 177.65 463.47 177.78 463.43 177.87C462.55 180.3 461.73 182.76 460.91 185.22C461.53 184.1 462.15 182.99 462.81 181.89C462.824 181.877 462.841 181.869 462.859 181.867C462.878 181.864 462.897 181.868 462.913 181.877C462.93 181.885 462.943 181.899 462.951 181.916C462.96 181.933 462.963 181.952 462.96 181.97C462.22 183.33 461.44 184.66 460.65 185.97C460.46 186.56 460.26 187.16 460.06 187.75C458.95 191.05 457.89 194.37 456.94 197.75C456.704 198.498 456.546 199.269 456.47 200.05C456.429 200.94 456.562 201.83 456.86 202.67C457.34 204.22 457.86 205.75 458.42 207.27C459.52 210.34 460.72 213.36 461.97 216.36C463.4 219.78 465.03 223.15 466.65 226.48C466.65 226.48 465.65 226.74 465.65 226.76C465.65 226.78 465.57 226.76 465.59 226.71C465.61 226.66 466.21 226.38 466.23 226.38C464.58 223.5 463.01 220.67 461.62 217.64C460.23 214.61 459.02 211.64 457.91 208.5C457.34 206.9 456.79 205.3 456.29 203.68C455.722 202.178 455.567 200.552 455.84 198.97C456.21 197.31 456.81 195.69 457.32 194.08Z" fill="#263238"/>
<path d="M439.55 231.81C440.484 231.305 441.446 230.851 442.43 230.45C443.29 230.05 444.14 229.64 445.01 229.25C446.89 228.4 448.77 227.54 450.66 226.7C452.55 225.86 454.43 225.01 456.32 224.19C458.21 223.37 460.07 222.49 461.99 221.78C462.06 221.78 462.11 221.86 462.05 221.9C460.3 222.98 458.43 223.9 456.59 224.79C454.75 225.68 452.94 226.54 451.09 227.37C449.24 228.2 447.3 229.01 445.39 229.78C444.47 230.15 443.54 230.49 442.6 230.84C441.624 231.261 440.622 231.619 439.6 231.91C439.588 231.911 439.576 231.909 439.565 231.903C439.554 231.897 439.546 231.888 439.541 231.877C439.535 231.866 439.533 231.854 439.535 231.842C439.536 231.83 439.542 231.819 439.55 231.81V231.81Z" fill="#263238"/>
</svg>
